<mxfile host="app.diagrams.net" agent="Mozilla/5.0 (Windows NT 10.0; Win64; x64) AppleWebKit/537.36 (KHTML, like Gecko) Chrome/129.0.0.0 Safari/537.36" version="24.7.16" pages="2">
  <diagram id="VdbpzdK1AwvrrNIaupxX" name="Page-1">
    <mxGraphModel dx="1802" dy="860" grid="0" gridSize="10" guides="1" tooltips="1" connect="1" arrows="1" fold="1" page="0" pageScale="1" pageWidth="850" pageHeight="1100" math="0" shadow="0">
      <root>
        <mxCell id="0" />
        <mxCell id="1" parent="0" />
        <mxCell id="SoAh3erIzKBtDHapFuTV-1" value="Mammal" style="ellipse;whiteSpace=wrap;html=1;shadow=0;fontFamily=Helvetica;fontSize=20;fontColor=#FFFFFF;align=center;strokeWidth=3;fillColor=#1699D3;strokeColor=none;rounded=1;" parent="1" vertex="1">
          <mxGeometry x="506.5" y="210" width="120" height="120" as="geometry" />
        </mxCell>
        <mxCell id="SoAh3erIzKBtDHapFuTV-2" value="Insect" style="ellipse;whiteSpace=wrap;html=1;shadow=0;fontFamily=Helvetica;fontSize=20;fontColor=#FFFFFF;align=center;strokeWidth=3;fillColor=#F08705;strokeColor=none;gradientColor=none;rounded=1;" parent="1" vertex="1">
          <mxGeometry x="1086.5" y="180" width="120" height="120" as="geometry" />
        </mxCell>
        <mxCell id="SoAh3erIzKBtDHapFuTV-3" value="Bird" style="ellipse;whiteSpace=wrap;html=1;shadow=0;fontFamily=Helvetica;fontSize=20;fontColor=#FFFFFF;align=center;strokeWidth=3;fillColor=#E85642;strokeColor=none;rounded=1;" parent="1" vertex="1">
          <mxGeometry x="1684" y="295" width="120" height="120" as="geometry" />
        </mxCell>
        <mxCell id="SoAh3erIzKBtDHapFuTV-4" value="Fish" style="ellipse;whiteSpace=wrap;html=1;shadow=0;fontFamily=Helvetica;fontSize=20;fontColor=#FFFFFF;align=center;strokeWidth=3;fillColor=#1699D3;strokeColor=none;rounded=1;" parent="1" vertex="1">
          <mxGeometry x="1919" y="745" width="120" height="120" as="geometry" />
        </mxCell>
        <mxCell id="SoAh3erIzKBtDHapFuTV-5" value="Bacteria" style="ellipse;whiteSpace=wrap;html=1;shadow=0;fontFamily=Helvetica;fontSize=20;fontColor=#FFFFFF;align=center;strokeWidth=3;fillColor=#736ca8;strokeColor=none;rounded=1;" parent="1" vertex="1">
          <mxGeometry x="1694" y="1110" width="120" height="120" as="geometry" />
        </mxCell>
        <mxCell id="SoAh3erIzKBtDHapFuTV-6" value="Fungi" style="ellipse;whiteSpace=wrap;html=1;shadow=0;fontFamily=Helvetica;fontSize=20;fontColor=#FFFFFF;align=center;strokeWidth=3;fillColor=#F08705;strokeColor=none;rounded=1;" parent="1" vertex="1">
          <mxGeometry x="1146.5" y="1247.5" width="120" height="120" as="geometry" />
        </mxCell>
        <mxCell id="SoAh3erIzKBtDHapFuTV-7" value="Flower" style="ellipse;whiteSpace=wrap;html=1;shadow=0;fontFamily=Helvetica;fontSize=20;fontColor=#FFFFFF;align=center;strokeWidth=3;fillColor=#E85642;strokeColor=none;rounded=1;" parent="1" vertex="1">
          <mxGeometry x="541.5" y="1110" width="120" height="120" as="geometry" />
        </mxCell>
        <mxCell id="SoAh3erIzKBtDHapFuTV-8" value="Ant" style="rounded=1;fillColor=#f5af58;strokeColor=none;strokeWidth=3;shadow=0;html=1;fontColor=#FFFFFF;fontSize=16;" parent="1" vertex="1">
          <mxGeometry x="956.5" y="350" width="120" height="40" as="geometry" />
        </mxCell>
        <mxCell id="SoAh3erIzKBtDHapFuTV-9" value="Dolphin" style="rounded=1;fillColor=#64BBE2;strokeColor=none;strokeWidth=3;shadow=0;html=1;fontColor=#FFFFFF;fontSize=16;" parent="1" vertex="1">
          <mxGeometry x="331.5" y="355" width="130" height="40" as="geometry" />
        </mxCell>
        <mxCell id="SoAh3erIzKBtDHapFuTV-10" style="endArrow=none;strokeWidth=6;strokeColor=#1699D3;html=1;rounded=1;fontSize=12;" parent="1" source="SoAh3erIzKBtDHapFuTV-166" target="SoAh3erIzKBtDHapFuTV-1" edge="1">
          <mxGeometry relative="1" as="geometry" />
        </mxCell>
        <mxCell id="SoAh3erIzKBtDHapFuTV-11" style="endArrow=none;strokeWidth=6;strokeColor=#f08705;html=1;rounded=1;fontSize=12;" parent="1" source="SoAh3erIzKBtDHapFuTV-166" target="SoAh3erIzKBtDHapFuTV-2" edge="1">
          <mxGeometry relative="1" as="geometry" />
        </mxCell>
        <mxCell id="SoAh3erIzKBtDHapFuTV-12" style="endArrow=none;strokeWidth=6;strokeColor=#E85642;html=1;rounded=1;fontSize=12;" parent="1" source="SoAh3erIzKBtDHapFuTV-166" target="SoAh3erIzKBtDHapFuTV-3" edge="1">
          <mxGeometry relative="1" as="geometry" />
        </mxCell>
        <mxCell id="SoAh3erIzKBtDHapFuTV-13" style="endArrow=none;strokeWidth=6;strokeColor=#1699D3;html=1;rounded=1;fontSize=12;" parent="1" source="SoAh3erIzKBtDHapFuTV-166" target="SoAh3erIzKBtDHapFuTV-4" edge="1">
          <mxGeometry relative="1" as="geometry" />
        </mxCell>
        <mxCell id="SoAh3erIzKBtDHapFuTV-14" style="endArrow=none;strokeWidth=6;strokeColor=#736CA8;html=1;rounded=1;fontSize=12;" parent="1" source="SoAh3erIzKBtDHapFuTV-166" target="SoAh3erIzKBtDHapFuTV-167" edge="1">
          <mxGeometry relative="1" as="geometry" />
        </mxCell>
        <mxCell id="SoAh3erIzKBtDHapFuTV-15" style="endArrow=none;strokeWidth=6;strokeColor=#736ca8;html=1;rounded=1;fontSize=12;" parent="1" source="SoAh3erIzKBtDHapFuTV-166" target="SoAh3erIzKBtDHapFuTV-5" edge="1">
          <mxGeometry relative="1" as="geometry" />
        </mxCell>
        <mxCell id="SoAh3erIzKBtDHapFuTV-16" value="" style="edgeStyle=none;endArrow=none;strokeWidth=6;strokeColor=#F08705;html=1;rounded=1;fontSize=12;" parent="1" source="SoAh3erIzKBtDHapFuTV-166" target="SoAh3erIzKBtDHapFuTV-6" edge="1">
          <mxGeometry x="181" y="226.5" width="100" height="100" as="geometry">
            <mxPoint x="164" y="265" as="sourcePoint" />
            <mxPoint x="264" y="165" as="targetPoint" />
          </mxGeometry>
        </mxCell>
        <mxCell id="SoAh3erIzKBtDHapFuTV-17" value="" style="edgeStyle=none;endArrow=none;strokeWidth=6;strokeColor=#E85642;html=1;rounded=1;fontSize=12;" parent="1" source="SoAh3erIzKBtDHapFuTV-166" target="SoAh3erIzKBtDHapFuTV-7" edge="1">
          <mxGeometry x="181" y="226.5" width="100" height="100" as="geometry">
            <mxPoint x="164" y="265" as="sourcePoint" />
            <mxPoint x="264" y="165" as="targetPoint" />
          </mxGeometry>
        </mxCell>
        <mxCell id="SoAh3erIzKBtDHapFuTV-18" value="Lion" style="rounded=1;fillColor=#64BBE2;strokeColor=none;strokeWidth=3;shadow=0;html=1;fontColor=#FFFFFF;fontSize=16;" parent="1" vertex="1">
          <mxGeometry x="401.5" y="405" width="130" height="40" as="geometry" />
        </mxCell>
        <mxCell id="SoAh3erIzKBtDHapFuTV-19" value="Elephant" style="rounded=1;fillColor=#64BBE2;strokeColor=none;strokeWidth=3;shadow=0;html=1;fontColor=#FFFFFF;fontSize=16;" parent="1" vertex="1">
          <mxGeometry x="301.5" y="285" width="130" height="40" as="geometry" />
        </mxCell>
        <mxCell id="SoAh3erIzKBtDHapFuTV-20" value="Cat" style="rounded=1;fillColor=#64BBE2;strokeColor=none;strokeWidth=3;shadow=0;html=1;fontColor=#FFFFFF;fontSize=16;" parent="1" vertex="1">
          <mxGeometry x="301.5" y="210" width="130" height="40" as="geometry" />
        </mxCell>
        <mxCell id="SoAh3erIzKBtDHapFuTV-21" value="Giraffe" style="rounded=1;fillColor=#64BBE2;strokeColor=none;strokeWidth=3;shadow=0;html=1;fontColor=#FFFFFF;fontSize=16;" parent="1" vertex="1">
          <mxGeometry x="341.5" y="145" width="130" height="40" as="geometry" />
        </mxCell>
        <mxCell id="SoAh3erIzKBtDHapFuTV-22" value="Dog" style="rounded=1;fillColor=#64BBE2;strokeColor=none;strokeWidth=3;shadow=0;html=1;fontColor=#FFFFFF;fontSize=16;" parent="1" vertex="1">
          <mxGeometry x="391.5" y="85" width="130" height="40" as="geometry" />
        </mxCell>
        <mxCell id="SoAh3erIzKBtDHapFuTV-23" value="Donkey" style="rounded=1;fillColor=#64BBE2;strokeColor=none;strokeWidth=3;shadow=0;html=1;fontColor=#FFFFFF;fontSize=16;" parent="1" vertex="1">
          <mxGeometry x="471.5" y="25" width="130" height="40" as="geometry" />
        </mxCell>
        <mxCell id="SoAh3erIzKBtDHapFuTV-24" value="Leopard" style="rounded=1;fillColor=#64BBE2;strokeColor=none;strokeWidth=3;shadow=0;html=1;fontColor=#FFFFFF;fontSize=16;" parent="1" vertex="1">
          <mxGeometry x="591.5" y="85" width="130" height="40" as="geometry" />
        </mxCell>
        <mxCell id="SoAh3erIzKBtDHapFuTV-25" value="Horse" style="rounded=1;fillColor=#64BBE2;strokeColor=none;strokeWidth=3;shadow=0;html=1;fontColor=#FFFFFF;fontSize=16;" parent="1" vertex="1">
          <mxGeometry x="646.5" y="145" width="130" height="40" as="geometry" />
        </mxCell>
        <mxCell id="SoAh3erIzKBtDHapFuTV-26" value="Zebra" style="rounded=1;fillColor=#64BBE2;strokeColor=none;strokeWidth=3;shadow=0;html=1;fontColor=#FFFFFF;fontSize=16;" parent="1" vertex="1">
          <mxGeometry x="681.5" y="205" width="130" height="40" as="geometry" />
        </mxCell>
        <mxCell id="SoAh3erIzKBtDHapFuTV-27" value="Gazelle" style="rounded=1;fillColor=#64BBE2;strokeColor=none;strokeWidth=3;shadow=0;html=1;fontColor=#FFFFFF;fontSize=16;" parent="1" vertex="1">
          <mxGeometry x="696.5" y="285" width="130" height="40" as="geometry" />
        </mxCell>
        <mxCell id="SoAh3erIzKBtDHapFuTV-28" value="" style="edgeStyle=none;endArrow=none;strokeWidth=3;strokeColor=#64BBE2;html=1;rounded=1;fontSize=12;" parent="1" source="SoAh3erIzKBtDHapFuTV-1" target="SoAh3erIzKBtDHapFuTV-27" edge="1">
          <mxGeometry x="-221.5" y="56.5" width="100" height="100" as="geometry">
            <mxPoint x="-238.5" y="95" as="sourcePoint" />
            <mxPoint x="-138.5" y="-5" as="targetPoint" />
          </mxGeometry>
        </mxCell>
        <mxCell id="SoAh3erIzKBtDHapFuTV-29" value="" style="edgeStyle=none;endArrow=none;strokeWidth=3;strokeColor=#64BBE2;html=1;rounded=1;fontSize=12;" parent="1" source="SoAh3erIzKBtDHapFuTV-1" target="SoAh3erIzKBtDHapFuTV-18" edge="1">
          <mxGeometry x="-221.5" y="56.5" width="100" height="100" as="geometry">
            <mxPoint x="-238.5" y="95" as="sourcePoint" />
            <mxPoint x="-138.5" y="-5" as="targetPoint" />
          </mxGeometry>
        </mxCell>
        <mxCell id="SoAh3erIzKBtDHapFuTV-30" value="" style="edgeStyle=none;endArrow=none;strokeWidth=3;strokeColor=#64BBE2;html=1;rounded=1;fontSize=12;" parent="1" source="SoAh3erIzKBtDHapFuTV-1" target="SoAh3erIzKBtDHapFuTV-9" edge="1">
          <mxGeometry x="-221.5" y="56.5" width="100" height="100" as="geometry">
            <mxPoint x="-238.5" y="95" as="sourcePoint" />
            <mxPoint x="-138.5" y="-5" as="targetPoint" />
          </mxGeometry>
        </mxCell>
        <mxCell id="SoAh3erIzKBtDHapFuTV-31" value="" style="edgeStyle=none;endArrow=none;strokeWidth=3;strokeColor=#64BBE2;html=1;rounded=1;fontSize=12;" parent="1" source="SoAh3erIzKBtDHapFuTV-1" target="SoAh3erIzKBtDHapFuTV-19" edge="1">
          <mxGeometry x="-221.5" y="56.5" width="100" height="100" as="geometry">
            <mxPoint x="-238.5" y="95" as="sourcePoint" />
            <mxPoint x="-138.5" y="-5" as="targetPoint" />
          </mxGeometry>
        </mxCell>
        <mxCell id="SoAh3erIzKBtDHapFuTV-32" value="" style="edgeStyle=none;endArrow=none;strokeWidth=3;strokeColor=#64BBE2;html=1;rounded=1;fontSize=12;" parent="1" source="SoAh3erIzKBtDHapFuTV-1" target="SoAh3erIzKBtDHapFuTV-20" edge="1">
          <mxGeometry x="-221.5" y="56.5" width="100" height="100" as="geometry">
            <mxPoint x="-238.5" y="95" as="sourcePoint" />
            <mxPoint x="-138.5" y="-5" as="targetPoint" />
          </mxGeometry>
        </mxCell>
        <mxCell id="SoAh3erIzKBtDHapFuTV-33" value="" style="edgeStyle=none;endArrow=none;strokeWidth=3;strokeColor=#64BBE2;html=1;rounded=1;fontSize=12;" parent="1" source="SoAh3erIzKBtDHapFuTV-1" target="SoAh3erIzKBtDHapFuTV-21" edge="1">
          <mxGeometry x="-221.5" y="56.5" width="100" height="100" as="geometry">
            <mxPoint x="-238.5" y="95" as="sourcePoint" />
            <mxPoint x="-138.5" y="-5" as="targetPoint" />
          </mxGeometry>
        </mxCell>
        <mxCell id="SoAh3erIzKBtDHapFuTV-34" value="" style="edgeStyle=none;endArrow=none;strokeWidth=3;strokeColor=#64BBE2;html=1;rounded=1;fontSize=12;" parent="1" source="SoAh3erIzKBtDHapFuTV-1" target="SoAh3erIzKBtDHapFuTV-22" edge="1">
          <mxGeometry x="-221.5" y="56.5" width="100" height="100" as="geometry">
            <mxPoint x="-238.5" y="95" as="sourcePoint" />
            <mxPoint x="-138.5" y="-5" as="targetPoint" />
          </mxGeometry>
        </mxCell>
        <mxCell id="SoAh3erIzKBtDHapFuTV-35" value="" style="edgeStyle=none;endArrow=none;strokeWidth=3;strokeColor=#64BBE2;html=1;rounded=1;fontSize=12;" parent="1" source="SoAh3erIzKBtDHapFuTV-1" target="SoAh3erIzKBtDHapFuTV-23" edge="1">
          <mxGeometry x="-221.5" y="56.5" width="100" height="100" as="geometry">
            <mxPoint x="-238.5" y="95" as="sourcePoint" />
            <mxPoint x="-138.5" y="-5" as="targetPoint" />
          </mxGeometry>
        </mxCell>
        <mxCell id="SoAh3erIzKBtDHapFuTV-36" value="" style="edgeStyle=none;endArrow=none;strokeWidth=3;strokeColor=#64BBE2;html=1;rounded=1;fontSize=12;" parent="1" source="SoAh3erIzKBtDHapFuTV-1" target="SoAh3erIzKBtDHapFuTV-24" edge="1">
          <mxGeometry x="-221.5" y="56.5" width="100" height="100" as="geometry">
            <mxPoint x="-238.5" y="95" as="sourcePoint" />
            <mxPoint x="-138.5" y="-5" as="targetPoint" />
          </mxGeometry>
        </mxCell>
        <mxCell id="SoAh3erIzKBtDHapFuTV-37" value="" style="edgeStyle=none;endArrow=none;strokeWidth=3;strokeColor=#64BBE2;html=1;rounded=1;fontSize=12;" parent="1" source="SoAh3erIzKBtDHapFuTV-1" target="SoAh3erIzKBtDHapFuTV-25" edge="1">
          <mxGeometry x="-221.5" y="56.5" width="100" height="100" as="geometry">
            <mxPoint x="-238.5" y="95" as="sourcePoint" />
            <mxPoint x="-138.5" y="-5" as="targetPoint" />
          </mxGeometry>
        </mxCell>
        <mxCell id="SoAh3erIzKBtDHapFuTV-38" value="" style="edgeStyle=none;endArrow=none;strokeWidth=3;strokeColor=#64BBE2;html=1;rounded=1;fontSize=12;" parent="1" source="SoAh3erIzKBtDHapFuTV-1" target="SoAh3erIzKBtDHapFuTV-26" edge="1">
          <mxGeometry x="-221.5" y="56.5" width="100" height="100" as="geometry">
            <mxPoint x="-238.5" y="95" as="sourcePoint" />
            <mxPoint x="-138.5" y="-5" as="targetPoint" />
          </mxGeometry>
        </mxCell>
        <mxCell id="SoAh3erIzKBtDHapFuTV-39" value="Bee" style="rounded=1;fillColor=#f5af58;strokeColor=none;strokeWidth=3;shadow=0;html=1;fontColor=#FFFFFF;fontSize=16;" parent="1" vertex="1">
          <mxGeometry x="896.5" y="280" width="120" height="40" as="geometry" />
        </mxCell>
        <mxCell id="SoAh3erIzKBtDHapFuTV-40" value="Hornet" style="rounded=1;fillColor=#f5af58;strokeColor=none;strokeWidth=3;shadow=0;html=1;fontColor=#FFFFFF;fontSize=16;" parent="1" vertex="1">
          <mxGeometry x="886.5" y="210" width="120" height="40" as="geometry" />
        </mxCell>
        <mxCell id="SoAh3erIzKBtDHapFuTV-41" value="Fly" style="rounded=1;fillColor=#f5af58;strokeColor=none;strokeWidth=3;shadow=0;html=1;fontColor=#FFFFFF;fontSize=16;" parent="1" vertex="1">
          <mxGeometry x="906.5" y="140" width="120" height="40" as="geometry" />
        </mxCell>
        <mxCell id="SoAh3erIzKBtDHapFuTV-42" value="Termite" style="rounded=1;fillColor=#f5af58;strokeColor=none;strokeWidth=3;shadow=0;html=1;fontColor=#FFFFFF;fontSize=16;" parent="1" vertex="1">
          <mxGeometry x="946.5" y="80" width="120" height="40" as="geometry" />
        </mxCell>
        <mxCell id="SoAh3erIzKBtDHapFuTV-43" value="Mantis" style="rounded=1;fillColor=#f5af58;strokeColor=none;strokeWidth=3;shadow=0;html=1;fontColor=#FFFFFF;fontSize=16;" parent="1" vertex="1">
          <mxGeometry x="1016.5" y="20" width="120" height="40" as="geometry" />
        </mxCell>
        <mxCell id="SoAh3erIzKBtDHapFuTV-44" value="Ladybug" style="rounded=1;fillColor=#f5af58;strokeColor=none;strokeWidth=3;shadow=0;html=1;fontColor=#FFFFFF;fontSize=16;" parent="1" vertex="1">
          <mxGeometry x="1146.5" y="20" width="120" height="40" as="geometry" />
        </mxCell>
        <mxCell id="SoAh3erIzKBtDHapFuTV-45" value="Butterfly" style="rounded=1;fillColor=#f5af58;strokeColor=none;strokeWidth=3;shadow=0;html=1;fontColor=#FFFFFF;fontSize=16;" parent="1" vertex="1">
          <mxGeometry x="1216.5" y="80" width="120" height="40" as="geometry" />
        </mxCell>
        <mxCell id="SoAh3erIzKBtDHapFuTV-46" value="Flea" style="rounded=1;fillColor=#f5af58;strokeColor=none;strokeWidth=3;shadow=0;html=1;fontColor=#FFFFFF;fontSize=16;" parent="1" vertex="1">
          <mxGeometry x="1266.5" y="140" width="120" height="40" as="geometry" />
        </mxCell>
        <mxCell id="SoAh3erIzKBtDHapFuTV-47" value="Mosquito" style="rounded=1;fillColor=#f5af58;strokeColor=none;strokeWidth=3;shadow=0;html=1;fontColor=#FFFFFF;fontSize=16;" parent="1" vertex="1">
          <mxGeometry x="1281.5" y="210" width="120" height="40" as="geometry" />
        </mxCell>
        <mxCell id="SoAh3erIzKBtDHapFuTV-48" value="Spider" style="rounded=1;fillColor=#f5af58;strokeColor=none;strokeWidth=3;shadow=0;html=1;fontColor=#FFFFFF;fontSize=16;" parent="1" vertex="1">
          <mxGeometry x="1276.5" y="270" width="120" height="40" as="geometry" />
        </mxCell>
        <mxCell id="SoAh3erIzKBtDHapFuTV-49" value="Bumblebee" style="rounded=1;fillColor=#f5af58;strokeColor=none;strokeWidth=3;shadow=0;html=1;fontColor=#FFFFFF;fontSize=16;" parent="1" vertex="1">
          <mxGeometry x="1221.5" y="340" width="120" height="40" as="geometry" />
        </mxCell>
        <mxCell id="SoAh3erIzKBtDHapFuTV-50" value="" style="edgeStyle=none;endArrow=none;strokeWidth=3;strokeColor=#F5AF58;html=1;rounded=1;fontSize=12;" parent="1" source="SoAh3erIzKBtDHapFuTV-2" target="SoAh3erIzKBtDHapFuTV-8" edge="1">
          <mxGeometry x="3.5" y="21.5" width="100" height="100" as="geometry">
            <mxPoint x="-13.5" y="60" as="sourcePoint" />
            <mxPoint x="86.5" y="-40" as="targetPoint" />
          </mxGeometry>
        </mxCell>
        <mxCell id="SoAh3erIzKBtDHapFuTV-51" value="" style="edgeStyle=none;endArrow=none;strokeWidth=3;strokeColor=#F5AF58;html=1;rounded=1;fontSize=12;" parent="1" source="SoAh3erIzKBtDHapFuTV-2" target="SoAh3erIzKBtDHapFuTV-39" edge="1">
          <mxGeometry x="3.5" y="21.5" width="100" height="100" as="geometry">
            <mxPoint x="-13.5" y="60" as="sourcePoint" />
            <mxPoint x="86.5" y="-40" as="targetPoint" />
          </mxGeometry>
        </mxCell>
        <mxCell id="SoAh3erIzKBtDHapFuTV-52" value="" style="edgeStyle=none;endArrow=none;strokeWidth=3;strokeColor=#F5AF58;html=1;rounded=1;fontSize=12;" parent="1" source="SoAh3erIzKBtDHapFuTV-2" target="SoAh3erIzKBtDHapFuTV-40" edge="1">
          <mxGeometry x="3.5" y="21.5" width="100" height="100" as="geometry">
            <mxPoint x="-13.5" y="60" as="sourcePoint" />
            <mxPoint x="86.5" y="-40" as="targetPoint" />
          </mxGeometry>
        </mxCell>
        <mxCell id="SoAh3erIzKBtDHapFuTV-53" value="" style="edgeStyle=none;endArrow=none;strokeWidth=3;strokeColor=#F5AF58;html=1;rounded=1;fontSize=12;" parent="1" source="SoAh3erIzKBtDHapFuTV-2" target="SoAh3erIzKBtDHapFuTV-41" edge="1">
          <mxGeometry x="3.5" y="21.5" width="100" height="100" as="geometry">
            <mxPoint x="-13.5" y="60" as="sourcePoint" />
            <mxPoint x="86.5" y="-40" as="targetPoint" />
          </mxGeometry>
        </mxCell>
        <mxCell id="SoAh3erIzKBtDHapFuTV-54" value="" style="edgeStyle=none;endArrow=none;strokeWidth=3;strokeColor=#F5AF58;html=1;rounded=1;fontSize=12;" parent="1" source="SoAh3erIzKBtDHapFuTV-2" target="SoAh3erIzKBtDHapFuTV-42" edge="1">
          <mxGeometry x="3.5" y="21.5" width="100" height="100" as="geometry">
            <mxPoint x="-13.5" y="60" as="sourcePoint" />
            <mxPoint x="86.5" y="-40" as="targetPoint" />
          </mxGeometry>
        </mxCell>
        <mxCell id="SoAh3erIzKBtDHapFuTV-55" value="" style="edgeStyle=none;endArrow=none;strokeWidth=3;strokeColor=#F5AF58;html=1;rounded=1;fontSize=12;" parent="1" source="SoAh3erIzKBtDHapFuTV-2" target="SoAh3erIzKBtDHapFuTV-43" edge="1">
          <mxGeometry x="3.5" y="21.5" width="100" height="100" as="geometry">
            <mxPoint x="-13.5" y="60" as="sourcePoint" />
            <mxPoint x="86.5" y="-40" as="targetPoint" />
          </mxGeometry>
        </mxCell>
        <mxCell id="SoAh3erIzKBtDHapFuTV-56" value="" style="edgeStyle=none;endArrow=none;strokeWidth=3;strokeColor=#F5AF58;html=1;rounded=1;fontSize=12;" parent="1" source="SoAh3erIzKBtDHapFuTV-2" target="SoAh3erIzKBtDHapFuTV-44" edge="1">
          <mxGeometry x="3.5" y="21.5" width="100" height="100" as="geometry">
            <mxPoint x="-13.5" y="60" as="sourcePoint" />
            <mxPoint x="86.5" y="-40" as="targetPoint" />
          </mxGeometry>
        </mxCell>
        <mxCell id="SoAh3erIzKBtDHapFuTV-57" value="" style="edgeStyle=none;endArrow=none;strokeWidth=3;strokeColor=#F5AF58;html=1;rounded=1;fontSize=12;" parent="1" source="SoAh3erIzKBtDHapFuTV-2" target="SoAh3erIzKBtDHapFuTV-45" edge="1">
          <mxGeometry x="3.5" y="21.5" width="100" height="100" as="geometry">
            <mxPoint x="-13.5" y="60" as="sourcePoint" />
            <mxPoint x="86.5" y="-40" as="targetPoint" />
          </mxGeometry>
        </mxCell>
        <mxCell id="SoAh3erIzKBtDHapFuTV-58" value="" style="edgeStyle=none;endArrow=none;strokeWidth=3;strokeColor=#F5AF58;html=1;rounded=1;fontSize=12;" parent="1" source="SoAh3erIzKBtDHapFuTV-2" target="SoAh3erIzKBtDHapFuTV-46" edge="1">
          <mxGeometry x="3.5" y="21.5" width="100" height="100" as="geometry">
            <mxPoint x="-13.5" y="60" as="sourcePoint" />
            <mxPoint x="86.5" y="-40" as="targetPoint" />
          </mxGeometry>
        </mxCell>
        <mxCell id="SoAh3erIzKBtDHapFuTV-59" value="" style="edgeStyle=none;endArrow=none;strokeWidth=3;strokeColor=#F5AF58;html=1;rounded=1;fontSize=12;" parent="1" source="SoAh3erIzKBtDHapFuTV-2" target="SoAh3erIzKBtDHapFuTV-47" edge="1">
          <mxGeometry x="3.5" y="21.5" width="100" height="100" as="geometry">
            <mxPoint x="-13.5" y="60" as="sourcePoint" />
            <mxPoint x="86.5" y="-40" as="targetPoint" />
          </mxGeometry>
        </mxCell>
        <mxCell id="SoAh3erIzKBtDHapFuTV-60" value="" style="edgeStyle=none;endArrow=none;strokeWidth=3;strokeColor=#F5AF58;html=1;rounded=1;fontSize=12;" parent="1" source="SoAh3erIzKBtDHapFuTV-2" target="SoAh3erIzKBtDHapFuTV-48" edge="1">
          <mxGeometry x="3.5" y="21.5" width="100" height="100" as="geometry">
            <mxPoint x="-13.5" y="60" as="sourcePoint" />
            <mxPoint x="86.5" y="-40" as="targetPoint" />
          </mxGeometry>
        </mxCell>
        <mxCell id="SoAh3erIzKBtDHapFuTV-61" value="" style="edgeStyle=none;endArrow=none;strokeWidth=3;strokeColor=#F5AF58;html=1;rounded=1;fontSize=12;" parent="1" source="SoAh3erIzKBtDHapFuTV-2" target="SoAh3erIzKBtDHapFuTV-49" edge="1">
          <mxGeometry x="3.5" y="21.5" width="100" height="100" as="geometry">
            <mxPoint x="-13.5" y="60" as="sourcePoint" />
            <mxPoint x="86.5" y="-40" as="targetPoint" />
          </mxGeometry>
        </mxCell>
        <mxCell id="SoAh3erIzKBtDHapFuTV-62" value="Eagle" style="rounded=1;fillColor=#f08e81;strokeColor=none;strokeWidth=3;shadow=0;html=1;fontColor=#FFFFFF;fontSize=16;" parent="1" vertex="1">
          <mxGeometry x="1594" y="455" width="120" height="40" as="geometry" />
        </mxCell>
        <mxCell id="SoAh3erIzKBtDHapFuTV-63" value="Pigeon" style="rounded=1;fillColor=#f08e81;strokeColor=none;strokeWidth=3;shadow=0;html=1;fontColor=#FFFFFF;fontSize=16;" parent="1" vertex="1">
          <mxGeometry x="1929" y="340" width="120" height="40" as="geometry" />
        </mxCell>
        <mxCell id="SoAh3erIzKBtDHapFuTV-64" value="Hawk" style="rounded=1;fillColor=#f08e81;strokeColor=none;strokeWidth=3;shadow=0;html=1;fontColor=#FFFFFF;fontSize=16;" parent="1" vertex="1">
          <mxGeometry x="1474" y="375" width="120" height="40" as="geometry" />
        </mxCell>
        <mxCell id="SoAh3erIzKBtDHapFuTV-65" value="Falcon" style="rounded=1;fillColor=#f08e81;strokeColor=none;strokeWidth=3;shadow=0;html=1;fontColor=#FFFFFF;fontSize=16;" parent="1" vertex="1">
          <mxGeometry x="1504" y="310" width="120" height="40" as="geometry" />
        </mxCell>
        <mxCell id="SoAh3erIzKBtDHapFuTV-66" value="Sparrow" style="rounded=1;fillColor=#f08e81;strokeColor=none;strokeWidth=3;shadow=0;html=1;fontColor=#FFFFFF;fontSize=16;" parent="1" vertex="1">
          <mxGeometry x="1524" y="230" width="120" height="40" as="geometry" />
        </mxCell>
        <mxCell id="SoAh3erIzKBtDHapFuTV-67" value="Stork" style="rounded=1;fillColor=#f08e81;strokeColor=none;strokeWidth=3;shadow=0;html=1;fontColor=#FFFFFF;fontSize=16;" parent="1" vertex="1">
          <mxGeometry x="1614" y="160" width="120" height="40" as="geometry" />
        </mxCell>
        <mxCell id="SoAh3erIzKBtDHapFuTV-68" value="Flamingo" style="rounded=1;fillColor=#f08e81;strokeColor=none;strokeWidth=3;shadow=0;html=1;fontColor=#FFFFFF;fontSize=16;" parent="1" vertex="1">
          <mxGeometry x="1749" y="105" width="120" height="40" as="geometry" />
        </mxCell>
        <mxCell id="SoAh3erIzKBtDHapFuTV-69" value="Penguin" style="rounded=1;fillColor=#f08e81;strokeColor=none;strokeWidth=3;shadow=0;html=1;fontColor=#FFFFFF;fontSize=16;" parent="1" vertex="1">
          <mxGeometry x="1844" y="190" width="120" height="40" as="geometry" />
        </mxCell>
        <mxCell id="SoAh3erIzKBtDHapFuTV-70" value="Owl" style="rounded=1;fillColor=#f08e81;strokeColor=none;strokeWidth=3;shadow=0;html=1;fontColor=#FFFFFF;fontSize=16;" parent="1" vertex="1">
          <mxGeometry x="1899" y="260" width="120" height="40" as="geometry" />
        </mxCell>
        <mxCell id="SoAh3erIzKBtDHapFuTV-71" value="Albatross" style="rounded=1;fillColor=#f08e81;strokeColor=none;strokeWidth=3;shadow=0;html=1;fontColor=#FFFFFF;fontSize=16;" parent="1" vertex="1">
          <mxGeometry x="1674" y="515" width="120" height="40" as="geometry" />
        </mxCell>
        <mxCell id="SoAh3erIzKBtDHapFuTV-72" value="Pelican" style="rounded=1;fillColor=#f08e81;strokeColor=none;strokeWidth=3;shadow=0;html=1;fontColor=#FFFFFF;fontSize=16;" parent="1" vertex="1">
          <mxGeometry x="1764" y="445" width="120" height="40" as="geometry" />
        </mxCell>
        <mxCell id="SoAh3erIzKBtDHapFuTV-73" value="Swallow" style="rounded=1;fillColor=#f08e81;strokeColor=none;strokeWidth=3;shadow=0;html=1;fontColor=#FFFFFF;fontSize=16;" parent="1" vertex="1">
          <mxGeometry x="1859" y="400" width="120" height="40" as="geometry" />
        </mxCell>
        <mxCell id="SoAh3erIzKBtDHapFuTV-74" value="" style="edgeStyle=none;endArrow=none;strokeWidth=3;strokeColor=#F08E81;html=1;rounded=1;fontSize=12;" parent="1" source="SoAh3erIzKBtDHapFuTV-3" target="SoAh3erIzKBtDHapFuTV-62" edge="1">
          <mxGeometry x="31" y="106.5" width="100" height="100" as="geometry">
            <mxPoint x="14" y="145" as="sourcePoint" />
            <mxPoint x="114" y="45" as="targetPoint" />
          </mxGeometry>
        </mxCell>
        <mxCell id="SoAh3erIzKBtDHapFuTV-75" value="" style="edgeStyle=none;endArrow=none;strokeWidth=3;strokeColor=#F08E81;html=1;rounded=1;fontSize=12;" parent="1" source="SoAh3erIzKBtDHapFuTV-3" target="SoAh3erIzKBtDHapFuTV-64" edge="1">
          <mxGeometry x="31" y="106.5" width="100" height="100" as="geometry">
            <mxPoint x="14" y="145" as="sourcePoint" />
            <mxPoint x="114" y="45" as="targetPoint" />
          </mxGeometry>
        </mxCell>
        <mxCell id="SoAh3erIzKBtDHapFuTV-76" value="" style="edgeStyle=none;endArrow=none;strokeWidth=3;strokeColor=#F08E81;html=1;rounded=1;fontSize=12;" parent="1" source="SoAh3erIzKBtDHapFuTV-3" target="SoAh3erIzKBtDHapFuTV-65" edge="1">
          <mxGeometry x="31" y="106.5" width="100" height="100" as="geometry">
            <mxPoint x="14" y="145" as="sourcePoint" />
            <mxPoint x="114" y="45" as="targetPoint" />
          </mxGeometry>
        </mxCell>
        <mxCell id="SoAh3erIzKBtDHapFuTV-77" value="" style="edgeStyle=none;endArrow=none;strokeWidth=3;strokeColor=#F08E81;html=1;rounded=1;fontSize=12;" parent="1" source="SoAh3erIzKBtDHapFuTV-3" target="SoAh3erIzKBtDHapFuTV-66" edge="1">
          <mxGeometry x="31" y="106.5" width="100" height="100" as="geometry">
            <mxPoint x="14" y="145" as="sourcePoint" />
            <mxPoint x="114" y="45" as="targetPoint" />
          </mxGeometry>
        </mxCell>
        <mxCell id="SoAh3erIzKBtDHapFuTV-78" value="" style="edgeStyle=none;endArrow=none;strokeWidth=3;strokeColor=#F08E81;html=1;rounded=1;fontSize=12;" parent="1" source="SoAh3erIzKBtDHapFuTV-3" target="SoAh3erIzKBtDHapFuTV-67" edge="1">
          <mxGeometry x="31" y="106.5" width="100" height="100" as="geometry">
            <mxPoint x="14" y="145" as="sourcePoint" />
            <mxPoint x="114" y="45" as="targetPoint" />
          </mxGeometry>
        </mxCell>
        <mxCell id="SoAh3erIzKBtDHapFuTV-79" value="" style="edgeStyle=none;endArrow=none;strokeWidth=3;strokeColor=#F08E81;html=1;rounded=1;fontSize=12;" parent="1" source="SoAh3erIzKBtDHapFuTV-3" target="SoAh3erIzKBtDHapFuTV-68" edge="1">
          <mxGeometry x="31" y="106.5" width="100" height="100" as="geometry">
            <mxPoint x="14" y="145" as="sourcePoint" />
            <mxPoint x="114" y="45" as="targetPoint" />
          </mxGeometry>
        </mxCell>
        <mxCell id="SoAh3erIzKBtDHapFuTV-80" value="" style="edgeStyle=none;endArrow=none;strokeWidth=3;strokeColor=#F08E81;html=1;rounded=1;fontSize=12;" parent="1" source="SoAh3erIzKBtDHapFuTV-3" target="SoAh3erIzKBtDHapFuTV-69" edge="1">
          <mxGeometry x="31" y="106.5" width="100" height="100" as="geometry">
            <mxPoint x="14" y="145" as="sourcePoint" />
            <mxPoint x="114" y="45" as="targetPoint" />
          </mxGeometry>
        </mxCell>
        <mxCell id="SoAh3erIzKBtDHapFuTV-81" value="" style="edgeStyle=none;endArrow=none;strokeWidth=3;strokeColor=#F08E81;html=1;rounded=1;fontSize=12;" parent="1" source="SoAh3erIzKBtDHapFuTV-3" target="SoAh3erIzKBtDHapFuTV-70" edge="1">
          <mxGeometry x="31" y="106.5" width="100" height="100" as="geometry">
            <mxPoint x="14" y="145" as="sourcePoint" />
            <mxPoint x="114" y="45" as="targetPoint" />
          </mxGeometry>
        </mxCell>
        <mxCell id="SoAh3erIzKBtDHapFuTV-82" value="" style="edgeStyle=none;endArrow=none;strokeWidth=3;strokeColor=#F08E81;html=1;rounded=1;fontSize=12;" parent="1" source="SoAh3erIzKBtDHapFuTV-3" target="SoAh3erIzKBtDHapFuTV-63" edge="1">
          <mxGeometry x="31" y="106.5" width="100" height="100" as="geometry">
            <mxPoint x="14" y="145" as="sourcePoint" />
            <mxPoint x="114" y="45" as="targetPoint" />
          </mxGeometry>
        </mxCell>
        <mxCell id="SoAh3erIzKBtDHapFuTV-83" value="" style="edgeStyle=none;endArrow=none;strokeWidth=3;strokeColor=#F08E81;html=1;rounded=1;fontSize=12;" parent="1" source="SoAh3erIzKBtDHapFuTV-3" target="SoAh3erIzKBtDHapFuTV-73" edge="1">
          <mxGeometry x="31" y="106.5" width="100" height="100" as="geometry">
            <mxPoint x="14" y="145" as="sourcePoint" />
            <mxPoint x="114" y="45" as="targetPoint" />
          </mxGeometry>
        </mxCell>
        <mxCell id="SoAh3erIzKBtDHapFuTV-84" value="" style="edgeStyle=none;endArrow=none;strokeWidth=3;strokeColor=#F08E81;html=1;rounded=1;fontSize=12;" parent="1" source="SoAh3erIzKBtDHapFuTV-3" target="SoAh3erIzKBtDHapFuTV-72" edge="1">
          <mxGeometry x="31" y="106.5" width="100" height="100" as="geometry">
            <mxPoint x="14" y="145" as="sourcePoint" />
            <mxPoint x="114" y="45" as="targetPoint" />
          </mxGeometry>
        </mxCell>
        <mxCell id="SoAh3erIzKBtDHapFuTV-85" value="" style="edgeStyle=none;endArrow=none;strokeWidth=3;strokeColor=#F08E81;html=1;rounded=1;fontSize=12;" parent="1" source="SoAh3erIzKBtDHapFuTV-3" target="SoAh3erIzKBtDHapFuTV-71" edge="1">
          <mxGeometry x="31" y="106.5" width="100" height="100" as="geometry">
            <mxPoint x="14" y="145" as="sourcePoint" />
            <mxPoint x="114" y="45" as="targetPoint" />
          </mxGeometry>
        </mxCell>
        <mxCell id="SoAh3erIzKBtDHapFuTV-86" value="Perch" style="rounded=1;fillColor=#64BBE2;strokeColor=none;strokeWidth=3;shadow=0;html=1;fontColor=#FFFFFF;fontSize=16;" parent="1" vertex="1">
          <mxGeometry x="1764" y="705" width="120" height="40" as="geometry" />
        </mxCell>
        <mxCell id="SoAh3erIzKBtDHapFuTV-87" value="Mackerel" style="rounded=1;fillColor=#64BBE2;strokeColor=none;strokeWidth=3;shadow=0;html=1;fontColor=#FFFFFF;fontSize=16;" parent="1" vertex="1">
          <mxGeometry x="1794" y="635" width="120" height="40" as="geometry" />
        </mxCell>
        <mxCell id="SoAh3erIzKBtDHapFuTV-88" value="Tuna" style="rounded=1;fillColor=#64BBE2;strokeColor=none;strokeWidth=3;shadow=0;html=1;fontColor=#FFFFFF;fontSize=16;" parent="1" vertex="1">
          <mxGeometry x="1919" y="605" width="120" height="40" as="geometry" />
        </mxCell>
        <mxCell id="SoAh3erIzKBtDHapFuTV-89" value="Shark" style="rounded=1;fillColor=#64BBE2;strokeColor=none;strokeWidth=3;shadow=0;html=1;fontColor=#FFFFFF;fontSize=16;" parent="1" vertex="1">
          <mxGeometry x="2039" y="555" width="120" height="40" as="geometry" />
        </mxCell>
        <mxCell id="SoAh3erIzKBtDHapFuTV-90" value="Whale" style="rounded=1;fillColor=#64BBE2;strokeColor=none;strokeWidth=3;shadow=0;html=1;fontColor=#FFFFFF;fontSize=16;" parent="1" vertex="1">
          <mxGeometry x="2084" y="645" width="120" height="40" as="geometry" />
        </mxCell>
        <mxCell id="SoAh3erIzKBtDHapFuTV-91" value="Bass" style="rounded=1;fillColor=#64BBE2;strokeColor=none;strokeWidth=3;shadow=0;html=1;fontColor=#FFFFFF;fontSize=16;" parent="1" vertex="1">
          <mxGeometry x="2154" y="725" width="120" height="40" as="geometry" />
        </mxCell>
        <mxCell id="SoAh3erIzKBtDHapFuTV-92" value="Eel" style="rounded=1;fillColor=#64BBE2;strokeColor=none;strokeWidth=3;shadow=0;html=1;fontColor=#FFFFFF;fontSize=16;" parent="1" vertex="1">
          <mxGeometry x="2104" y="905" width="120" height="40" as="geometry" />
        </mxCell>
        <mxCell id="SoAh3erIzKBtDHapFuTV-93" value="Oyster" style="rounded=1;fillColor=#64BBE2;strokeColor=none;strokeWidth=3;shadow=0;html=1;fontColor=#FFFFFF;fontSize=16;" parent="1" vertex="1">
          <mxGeometry x="2164" y="810" width="120" height="40" as="geometry" />
        </mxCell>
        <mxCell id="SoAh3erIzKBtDHapFuTV-94" value="Ray" style="rounded=1;fillColor=#64BBE2;strokeColor=none;strokeWidth=3;shadow=0;html=1;fontColor=#FFFFFF;fontSize=16;" parent="1" vertex="1">
          <mxGeometry x="1964" y="955" width="120" height="40" as="geometry" />
        </mxCell>
        <mxCell id="SoAh3erIzKBtDHapFuTV-95" value="Trout" style="rounded=1;fillColor=#64BBE2;strokeColor=none;strokeWidth=3;shadow=0;html=1;fontColor=#FFFFFF;fontSize=16;" parent="1" vertex="1">
          <mxGeometry x="1839" y="895" width="120" height="40" as="geometry" />
        </mxCell>
        <mxCell id="SoAh3erIzKBtDHapFuTV-96" value="Catfish" style="rounded=1;fillColor=#64BBE2;strokeColor=none;strokeWidth=3;shadow=0;html=1;fontColor=#FFFFFF;fontSize=16;" parent="1" vertex="1">
          <mxGeometry x="1739" y="830" width="120" height="40" as="geometry" />
        </mxCell>
        <mxCell id="SoAh3erIzKBtDHapFuTV-97" value="" style="edgeStyle=none;endArrow=none;strokeWidth=3;strokeColor=#64BBE2;html=1;rounded=1;fontSize=12;" parent="1" source="SoAh3erIzKBtDHapFuTV-4" target="SoAh3erIzKBtDHapFuTV-86" edge="1">
          <mxGeometry x="-24" y="196.5" width="100" height="100" as="geometry">
            <mxPoint x="-41" y="235" as="sourcePoint" />
            <mxPoint x="59" y="135" as="targetPoint" />
          </mxGeometry>
        </mxCell>
        <mxCell id="SoAh3erIzKBtDHapFuTV-98" value="" style="edgeStyle=none;endArrow=none;strokeWidth=3;strokeColor=#64BBE2;html=1;rounded=1;fontSize=12;" parent="1" source="SoAh3erIzKBtDHapFuTV-4" target="SoAh3erIzKBtDHapFuTV-87" edge="1">
          <mxGeometry x="-24" y="196.5" width="100" height="100" as="geometry">
            <mxPoint x="-41" y="235" as="sourcePoint" />
            <mxPoint x="59" y="135" as="targetPoint" />
          </mxGeometry>
        </mxCell>
        <mxCell id="SoAh3erIzKBtDHapFuTV-99" value="" style="edgeStyle=none;endArrow=none;strokeWidth=3;strokeColor=#64BBE2;html=1;rounded=1;fontSize=12;" parent="1" source="SoAh3erIzKBtDHapFuTV-4" target="SoAh3erIzKBtDHapFuTV-88" edge="1">
          <mxGeometry x="-24" y="196.5" width="100" height="100" as="geometry">
            <mxPoint x="-41" y="235" as="sourcePoint" />
            <mxPoint x="59" y="135" as="targetPoint" />
          </mxGeometry>
        </mxCell>
        <mxCell id="SoAh3erIzKBtDHapFuTV-100" value="" style="edgeStyle=none;endArrow=none;strokeWidth=3;strokeColor=#64BBE2;html=1;rounded=1;fontSize=12;" parent="1" source="SoAh3erIzKBtDHapFuTV-4" target="SoAh3erIzKBtDHapFuTV-89" edge="1">
          <mxGeometry x="-24" y="196.5" width="100" height="100" as="geometry">
            <mxPoint x="-41" y="235" as="sourcePoint" />
            <mxPoint x="59" y="135" as="targetPoint" />
          </mxGeometry>
        </mxCell>
        <mxCell id="SoAh3erIzKBtDHapFuTV-101" value="" style="edgeStyle=none;endArrow=none;strokeWidth=3;strokeColor=#64BBE2;html=1;rounded=1;fontSize=12;" parent="1" source="SoAh3erIzKBtDHapFuTV-4" target="SoAh3erIzKBtDHapFuTV-90" edge="1">
          <mxGeometry x="-24" y="196.5" width="100" height="100" as="geometry">
            <mxPoint x="-41" y="235" as="sourcePoint" />
            <mxPoint x="59" y="135" as="targetPoint" />
          </mxGeometry>
        </mxCell>
        <mxCell id="SoAh3erIzKBtDHapFuTV-102" value="" style="edgeStyle=none;endArrow=none;strokeWidth=3;strokeColor=#64BBE2;html=1;rounded=1;fontSize=12;" parent="1" source="SoAh3erIzKBtDHapFuTV-4" target="SoAh3erIzKBtDHapFuTV-91" edge="1">
          <mxGeometry x="-24" y="196.5" width="100" height="100" as="geometry">
            <mxPoint x="-41" y="235" as="sourcePoint" />
            <mxPoint x="59" y="135" as="targetPoint" />
          </mxGeometry>
        </mxCell>
        <mxCell id="SoAh3erIzKBtDHapFuTV-103" value="" style="edgeStyle=none;endArrow=none;strokeWidth=3;strokeColor=#64BBE2;html=1;rounded=1;fontSize=12;" parent="1" source="SoAh3erIzKBtDHapFuTV-4" target="SoAh3erIzKBtDHapFuTV-93" edge="1">
          <mxGeometry x="-24" y="196.5" width="100" height="100" as="geometry">
            <mxPoint x="-41" y="235" as="sourcePoint" />
            <mxPoint x="59" y="135" as="targetPoint" />
          </mxGeometry>
        </mxCell>
        <mxCell id="SoAh3erIzKBtDHapFuTV-104" value="" style="edgeStyle=none;endArrow=none;strokeWidth=3;strokeColor=#64BBE2;html=1;rounded=1;fontSize=12;" parent="1" source="SoAh3erIzKBtDHapFuTV-4" target="SoAh3erIzKBtDHapFuTV-92" edge="1">
          <mxGeometry x="-24" y="196.5" width="100" height="100" as="geometry">
            <mxPoint x="-41" y="235" as="sourcePoint" />
            <mxPoint x="59" y="135" as="targetPoint" />
          </mxGeometry>
        </mxCell>
        <mxCell id="SoAh3erIzKBtDHapFuTV-105" value="" style="edgeStyle=none;endArrow=none;strokeWidth=3;strokeColor=#64BBE2;html=1;rounded=1;fontSize=12;" parent="1" source="SoAh3erIzKBtDHapFuTV-4" target="SoAh3erIzKBtDHapFuTV-94" edge="1">
          <mxGeometry x="-24" y="196.5" width="100" height="100" as="geometry">
            <mxPoint x="-41" y="235" as="sourcePoint" />
            <mxPoint x="59" y="135" as="targetPoint" />
          </mxGeometry>
        </mxCell>
        <mxCell id="SoAh3erIzKBtDHapFuTV-106" value="" style="edgeStyle=none;endArrow=none;strokeWidth=3;strokeColor=#64BBE2;html=1;rounded=1;fontSize=12;" parent="1" source="SoAh3erIzKBtDHapFuTV-4" target="SoAh3erIzKBtDHapFuTV-95" edge="1">
          <mxGeometry x="-24" y="196.5" width="100" height="100" as="geometry">
            <mxPoint x="-41" y="235" as="sourcePoint" />
            <mxPoint x="59" y="135" as="targetPoint" />
          </mxGeometry>
        </mxCell>
        <mxCell id="SoAh3erIzKBtDHapFuTV-107" value="" style="edgeStyle=none;endArrow=none;strokeWidth=3;strokeColor=#64BBE2;html=1;rounded=1;fontSize=12;" parent="1" source="SoAh3erIzKBtDHapFuTV-4" target="SoAh3erIzKBtDHapFuTV-96" edge="1">
          <mxGeometry x="-24" y="196.5" width="100" height="100" as="geometry">
            <mxPoint x="-41" y="235" as="sourcePoint" />
            <mxPoint x="59" y="135" as="targetPoint" />
          </mxGeometry>
        </mxCell>
        <mxCell id="SoAh3erIzKBtDHapFuTV-108" value="Streptococcus" style="rounded=1;fillColor=#a29dc5;strokeColor=none;strokeWidth=3;shadow=0;html=1;fontColor=#FFFFFF;fontSize=16;" parent="1" vertex="1">
          <mxGeometry x="1629" y="1025.5" width="120" height="40" as="geometry" />
        </mxCell>
        <mxCell id="SoAh3erIzKBtDHapFuTV-109" value="Echericia Colli" style="rounded=1;fillColor=#a29dc5;strokeColor=none;strokeWidth=3;shadow=0;html=1;fontColor=#FFFFFF;fontSize=16;" parent="1" vertex="1">
          <mxGeometry x="1614" y="1240" width="120" height="40" as="geometry" />
        </mxCell>
        <mxCell id="SoAh3erIzKBtDHapFuTV-110" value="Lactobacyllus" style="rounded=1;fillColor=#a29dc5;strokeColor=none;strokeWidth=3;shadow=0;html=1;fontColor=#FFFFFF;fontSize=16;" parent="1" vertex="1">
          <mxGeometry x="1784" y="1052.5" width="120" height="40" as="geometry" />
        </mxCell>
        <mxCell id="SoAh3erIzKBtDHapFuTV-111" value="Helicobacter" style="rounded=1;fillColor=#a29dc5;strokeColor=none;strokeWidth=3;shadow=0;html=1;fontColor=#FFFFFF;fontSize=16;" parent="1" vertex="1">
          <mxGeometry x="1884" y="1132.5" width="120" height="40" as="geometry" />
        </mxCell>
        <mxCell id="SoAh3erIzKBtDHapFuTV-112" value="Bifidobacterium" style="rounded=1;fillColor=#a29dc5;strokeColor=none;strokeWidth=3;shadow=0;html=1;fontColor=#FFFFFF;fontSize=16;" parent="1" vertex="1">
          <mxGeometry x="1804" y="1270" width="120" height="40" as="geometry" />
        </mxCell>
        <mxCell id="SoAh3erIzKBtDHapFuTV-113" value="Staphyllococcus" style="rounded=1;fillColor=#a29dc5;strokeColor=none;strokeWidth=3;shadow=0;html=1;fontColor=#FFFFFF;fontSize=16;" parent="1" vertex="1">
          <mxGeometry x="1534" y="1150" width="120" height="40" as="geometry" />
        </mxCell>
        <mxCell id="SoAh3erIzKBtDHapFuTV-114" value="" style="edgeStyle=none;endArrow=none;strokeWidth=3;strokeColor=#A29DC5;html=1;rounded=1;fontSize=12;" parent="1" source="SoAh3erIzKBtDHapFuTV-5" target="SoAh3erIzKBtDHapFuTV-111" edge="1">
          <mxGeometry x="251" y="-103.5" width="100" height="100" as="geometry">
            <mxPoint x="234" y="-65" as="sourcePoint" />
            <mxPoint x="334" y="-165" as="targetPoint" />
          </mxGeometry>
        </mxCell>
        <mxCell id="SoAh3erIzKBtDHapFuTV-115" value="" style="edgeStyle=none;endArrow=none;strokeWidth=3;strokeColor=#A29DC5;html=1;rounded=1;fontSize=12;" parent="1" source="SoAh3erIzKBtDHapFuTV-5" target="SoAh3erIzKBtDHapFuTV-112" edge="1">
          <mxGeometry x="251" y="-103.5" width="100" height="100" as="geometry">
            <mxPoint x="234" y="-65" as="sourcePoint" />
            <mxPoint x="334" y="-165" as="targetPoint" />
          </mxGeometry>
        </mxCell>
        <mxCell id="SoAh3erIzKBtDHapFuTV-116" value="" style="edgeStyle=none;endArrow=none;strokeWidth=3;strokeColor=#A29DC5;html=1;rounded=1;fontSize=12;" parent="1" source="SoAh3erIzKBtDHapFuTV-5" target="SoAh3erIzKBtDHapFuTV-109" edge="1">
          <mxGeometry x="251" y="-103.5" width="100" height="100" as="geometry">
            <mxPoint x="234" y="-65" as="sourcePoint" />
            <mxPoint x="334" y="-165" as="targetPoint" />
          </mxGeometry>
        </mxCell>
        <mxCell id="SoAh3erIzKBtDHapFuTV-117" value="" style="edgeStyle=none;endArrow=none;strokeWidth=3;strokeColor=#A29DC5;html=1;rounded=1;fontSize=12;" parent="1" source="SoAh3erIzKBtDHapFuTV-5" target="SoAh3erIzKBtDHapFuTV-113" edge="1">
          <mxGeometry x="251" y="-103.5" width="100" height="100" as="geometry">
            <mxPoint x="234" y="-65" as="sourcePoint" />
            <mxPoint x="334" y="-165" as="targetPoint" />
          </mxGeometry>
        </mxCell>
        <mxCell id="SoAh3erIzKBtDHapFuTV-118" value="" style="edgeStyle=none;endArrow=none;strokeWidth=3;strokeColor=#A29DC5;html=1;rounded=1;fontSize=12;" parent="1" source="SoAh3erIzKBtDHapFuTV-5" target="SoAh3erIzKBtDHapFuTV-108" edge="1">
          <mxGeometry x="251" y="-103.5" width="100" height="100" as="geometry">
            <mxPoint x="234" y="-65" as="sourcePoint" />
            <mxPoint x="334" y="-165" as="targetPoint" />
          </mxGeometry>
        </mxCell>
        <mxCell id="SoAh3erIzKBtDHapFuTV-119" value="Zygomycota" style="rounded=1;fillColor=#f5af58;strokeColor=none;strokeWidth=3;shadow=0;html=1;fontColor=#FFFFFF;fontSize=16;" parent="1" vertex="1">
          <mxGeometry x="1341.5" y="1212.5" width="120" height="40" as="geometry" />
        </mxCell>
        <mxCell id="SoAh3erIzKBtDHapFuTV-120" value="Script Writing" style="rounded=1;fillColor=#f5af58;strokeColor=none;strokeWidth=3;shadow=0;html=1;fontColor=#FFFFFF;fontSize=16;" parent="1" vertex="1">
          <mxGeometry x="1356.5" y="1285" width="120" height="40" as="geometry" />
        </mxCell>
        <mxCell id="SoAh3erIzKBtDHapFuTV-121" value="Ascomycota" style="rounded=1;fillColor=#f5af58;strokeColor=none;strokeWidth=3;shadow=0;html=1;fontColor=#FFFFFF;fontSize=16;" parent="1" vertex="1">
          <mxGeometry x="1331.5" y="1350" width="120" height="40" as="geometry" />
        </mxCell>
        <mxCell id="SoAh3erIzKBtDHapFuTV-122" value="Basidiomycota" style="rounded=1;fillColor=#f5af58;strokeColor=none;strokeWidth=3;shadow=0;html=1;fontColor=#FFFFFF;fontSize=16;" parent="1" vertex="1">
          <mxGeometry x="1266.5" y="1410" width="120" height="40" as="geometry" />
        </mxCell>
        <mxCell id="SoAh3erIzKBtDHapFuTV-123" value="Mushroom" style="rounded=1;fillColor=#f5af58;strokeColor=none;strokeWidth=3;shadow=0;html=1;fontColor=#FFFFFF;fontSize=16;" parent="1" vertex="1">
          <mxGeometry x="1166.5" y="1467.5" width="120" height="40" as="geometry" />
        </mxCell>
        <mxCell id="SoAh3erIzKBtDHapFuTV-124" value="Lichen" style="rounded=1;fillColor=#f5af58;strokeColor=none;strokeWidth=3;shadow=0;html=1;fontColor=#FFFFFF;fontSize=16;" parent="1" vertex="1">
          <mxGeometry x="1066.5" y="1410" width="120" height="40" as="geometry" />
        </mxCell>
        <mxCell id="SoAh3erIzKBtDHapFuTV-125" value="Bread Mold" style="rounded=1;fillColor=#f5af58;strokeColor=none;strokeWidth=3;shadow=0;html=1;fontColor=#FFFFFF;fontSize=16;" parent="1" vertex="1">
          <mxGeometry x="986.5" y="1350" width="120" height="40" as="geometry" />
        </mxCell>
        <mxCell id="SoAh3erIzKBtDHapFuTV-126" value="Yeast" style="rounded=1;fillColor=#f5af58;strokeColor=none;strokeWidth=3;shadow=0;html=1;fontColor=#FFFFFF;fontSize=16;" parent="1" vertex="1">
          <mxGeometry x="946.5" y="1277.5" width="120" height="40" as="geometry" />
        </mxCell>
        <mxCell id="SoAh3erIzKBtDHapFuTV-127" value="Zygospore" style="rounded=1;fillColor=#f5af58;strokeColor=none;strokeWidth=3;shadow=0;html=1;fontColor=#FFFFFF;fontSize=16;" parent="1" vertex="1">
          <mxGeometry x="951.5" y="1212.5" width="120" height="40" as="geometry" />
        </mxCell>
        <mxCell id="SoAh3erIzKBtDHapFuTV-128" value="Truffle" style="rounded=1;fillColor=#f5af58;strokeColor=none;strokeWidth=3;shadow=0;html=1;fontColor=#FFFFFF;fontSize=16;" parent="1" vertex="1">
          <mxGeometry x="1011.5" y="1147.5" width="120" height="40" as="geometry" />
        </mxCell>
        <mxCell id="SoAh3erIzKBtDHapFuTV-129" value="Chytrid" style="rounded=1;fillColor=#f5af58;strokeColor=none;strokeWidth=3;shadow=0;html=1;fontColor=#FFFFFF;fontSize=16;" parent="1" vertex="1">
          <mxGeometry x="1281.5" y="1132.5" width="120" height="40" as="geometry" />
        </mxCell>
        <mxCell id="SoAh3erIzKBtDHapFuTV-130" value="" style="edgeStyle=none;endArrow=none;strokeWidth=3;strokeColor=#F5AF58;html=1;rounded=1;fontSize=12;" parent="1" source="SoAh3erIzKBtDHapFuTV-6" target="SoAh3erIzKBtDHapFuTV-129" edge="1">
          <mxGeometry x="243.5" y="39" width="100" height="100" as="geometry">
            <mxPoint x="226.5" y="77.5" as="sourcePoint" />
            <mxPoint x="326.5" y="-22.5" as="targetPoint" />
          </mxGeometry>
        </mxCell>
        <mxCell id="SoAh3erIzKBtDHapFuTV-131" value="" style="edgeStyle=none;endArrow=none;strokeWidth=3;strokeColor=#F5AF58;html=1;rounded=1;fontSize=12;" parent="1" source="SoAh3erIzKBtDHapFuTV-6" target="SoAh3erIzKBtDHapFuTV-119" edge="1">
          <mxGeometry x="243.5" y="39" width="100" height="100" as="geometry">
            <mxPoint x="226.5" y="77.5" as="sourcePoint" />
            <mxPoint x="326.5" y="-22.5" as="targetPoint" />
          </mxGeometry>
        </mxCell>
        <mxCell id="SoAh3erIzKBtDHapFuTV-132" value="" style="edgeStyle=none;endArrow=none;strokeWidth=3;strokeColor=#F5AF58;html=1;rounded=1;fontSize=12;" parent="1" source="SoAh3erIzKBtDHapFuTV-6" target="SoAh3erIzKBtDHapFuTV-120" edge="1">
          <mxGeometry x="243.5" y="39" width="100" height="100" as="geometry">
            <mxPoint x="226.5" y="77.5" as="sourcePoint" />
            <mxPoint x="326.5" y="-22.5" as="targetPoint" />
          </mxGeometry>
        </mxCell>
        <mxCell id="SoAh3erIzKBtDHapFuTV-133" value="" style="edgeStyle=none;endArrow=none;strokeWidth=3;strokeColor=#F5AF58;html=1;rounded=1;fontSize=12;" parent="1" source="SoAh3erIzKBtDHapFuTV-6" target="SoAh3erIzKBtDHapFuTV-121" edge="1">
          <mxGeometry x="243.5" y="39" width="100" height="100" as="geometry">
            <mxPoint x="226.5" y="77.5" as="sourcePoint" />
            <mxPoint x="326.5" y="-22.5" as="targetPoint" />
          </mxGeometry>
        </mxCell>
        <mxCell id="SoAh3erIzKBtDHapFuTV-134" value="" style="edgeStyle=none;endArrow=none;strokeWidth=3;strokeColor=#F5AF58;html=1;rounded=1;fontSize=12;" parent="1" source="SoAh3erIzKBtDHapFuTV-6" target="SoAh3erIzKBtDHapFuTV-122" edge="1">
          <mxGeometry x="243.5" y="39" width="100" height="100" as="geometry">
            <mxPoint x="226.5" y="77.5" as="sourcePoint" />
            <mxPoint x="326.5" y="-22.5" as="targetPoint" />
          </mxGeometry>
        </mxCell>
        <mxCell id="SoAh3erIzKBtDHapFuTV-135" value="" style="edgeStyle=none;endArrow=none;strokeWidth=3;strokeColor=#F5AF58;html=1;rounded=1;fontSize=12;" parent="1" source="SoAh3erIzKBtDHapFuTV-6" target="SoAh3erIzKBtDHapFuTV-123" edge="1">
          <mxGeometry x="243.5" y="39" width="100" height="100" as="geometry">
            <mxPoint x="226.5" y="77.5" as="sourcePoint" />
            <mxPoint x="326.5" y="-22.5" as="targetPoint" />
          </mxGeometry>
        </mxCell>
        <mxCell id="SoAh3erIzKBtDHapFuTV-136" value="" style="edgeStyle=none;endArrow=none;strokeWidth=3;strokeColor=#F5AF58;html=1;rounded=1;fontSize=12;" parent="1" source="SoAh3erIzKBtDHapFuTV-6" target="SoAh3erIzKBtDHapFuTV-124" edge="1">
          <mxGeometry x="243.5" y="39" width="100" height="100" as="geometry">
            <mxPoint x="226.5" y="77.5" as="sourcePoint" />
            <mxPoint x="326.5" y="-22.5" as="targetPoint" />
          </mxGeometry>
        </mxCell>
        <mxCell id="SoAh3erIzKBtDHapFuTV-137" value="" style="edgeStyle=none;endArrow=none;strokeWidth=3;strokeColor=#F5AF58;html=1;rounded=1;fontSize=12;" parent="1" source="SoAh3erIzKBtDHapFuTV-6" target="SoAh3erIzKBtDHapFuTV-125" edge="1">
          <mxGeometry x="243.5" y="39" width="100" height="100" as="geometry">
            <mxPoint x="226.5" y="77.5" as="sourcePoint" />
            <mxPoint x="326.5" y="-22.5" as="targetPoint" />
          </mxGeometry>
        </mxCell>
        <mxCell id="SoAh3erIzKBtDHapFuTV-138" value="" style="edgeStyle=none;endArrow=none;strokeWidth=3;strokeColor=#F5AF58;html=1;rounded=1;fontSize=12;" parent="1" source="SoAh3erIzKBtDHapFuTV-6" target="SoAh3erIzKBtDHapFuTV-126" edge="1">
          <mxGeometry x="243.5" y="39" width="100" height="100" as="geometry">
            <mxPoint x="226.5" y="77.5" as="sourcePoint" />
            <mxPoint x="326.5" y="-22.5" as="targetPoint" />
          </mxGeometry>
        </mxCell>
        <mxCell id="SoAh3erIzKBtDHapFuTV-139" value="" style="edgeStyle=none;endArrow=none;strokeWidth=3;strokeColor=#F5AF58;html=1;rounded=1;fontSize=12;" parent="1" source="SoAh3erIzKBtDHapFuTV-6" target="SoAh3erIzKBtDHapFuTV-127" edge="1">
          <mxGeometry x="243.5" y="39" width="100" height="100" as="geometry">
            <mxPoint x="226.5" y="77.5" as="sourcePoint" />
            <mxPoint x="326.5" y="-22.5" as="targetPoint" />
          </mxGeometry>
        </mxCell>
        <mxCell id="SoAh3erIzKBtDHapFuTV-140" value="" style="edgeStyle=none;endArrow=none;strokeWidth=3;strokeColor=#F5AF58;html=1;rounded=1;fontSize=12;" parent="1" source="SoAh3erIzKBtDHapFuTV-6" target="SoAh3erIzKBtDHapFuTV-128" edge="1">
          <mxGeometry x="243.5" y="39" width="100" height="100" as="geometry">
            <mxPoint x="226.5" y="77.5" as="sourcePoint" />
            <mxPoint x="326.5" y="-22.5" as="targetPoint" />
          </mxGeometry>
        </mxCell>
        <mxCell id="SoAh3erIzKBtDHapFuTV-141" value="Philadendron" style="rounded=1;fillColor=#f08e81;strokeColor=none;strokeWidth=3;shadow=0;html=1;fontColor=#FFFFFF;fontSize=16;" parent="1" vertex="1">
          <mxGeometry x="606.5" y="945" width="120" height="40" as="geometry" />
        </mxCell>
        <mxCell id="SoAh3erIzKBtDHapFuTV-142" value="Dahlia" style="rounded=1;fillColor=#f08e81;strokeColor=none;strokeWidth=3;shadow=0;html=1;fontColor=#FFFFFF;fontSize=16;" parent="1" vertex="1">
          <mxGeometry x="471.5" y="950" width="120" height="40" as="geometry" />
        </mxCell>
        <mxCell id="SoAh3erIzKBtDHapFuTV-143" value="Petunia" style="rounded=1;fillColor=#f08e81;strokeColor=none;strokeWidth=3;shadow=0;html=1;fontColor=#FFFFFF;fontSize=16;" parent="1" vertex="1">
          <mxGeometry x="406.5" y="1005" width="120" height="40" as="geometry" />
        </mxCell>
        <mxCell id="SoAh3erIzKBtDHapFuTV-144" value="Cactus" style="rounded=1;fillColor=#f08e81;strokeColor=none;strokeWidth=3;shadow=0;html=1;fontColor=#FFFFFF;fontSize=16;" parent="1" vertex="1">
          <mxGeometry x="351.5" y="1065" width="120" height="40" as="geometry" />
        </mxCell>
        <mxCell id="SoAh3erIzKBtDHapFuTV-145" value="Tulip" style="rounded=1;fillColor=#f08e81;strokeColor=none;strokeWidth=3;shadow=0;html=1;fontColor=#FFFFFF;fontSize=16;" parent="1" vertex="1">
          <mxGeometry x="331.5" y="1120" width="120" height="40" as="geometry" />
        </mxCell>
        <mxCell id="SoAh3erIzKBtDHapFuTV-146" value="Lilac" style="rounded=1;fillColor=#f08e81;strokeColor=none;strokeWidth=3;shadow=0;html=1;fontColor=#FFFFFF;fontSize=16;" parent="1" vertex="1">
          <mxGeometry x="346.5" y="1185" width="120" height="40" as="geometry" />
        </mxCell>
        <mxCell id="SoAh3erIzKBtDHapFuTV-147" value="Dandelion" style="rounded=1;fillColor=#f08e81;strokeColor=none;strokeWidth=3;shadow=0;html=1;fontColor=#FFFFFF;fontSize=16;" parent="1" vertex="1">
          <mxGeometry x="381.5" y="1247.5" width="120" height="40" as="geometry" />
        </mxCell>
        <mxCell id="SoAh3erIzKBtDHapFuTV-148" value="Poppy" style="rounded=1;fillColor=#f08e81;strokeColor=none;strokeWidth=3;shadow=0;html=1;fontColor=#FFFFFF;fontSize=16;" parent="1" vertex="1">
          <mxGeometry x="451.5" y="1297.5" width="120" height="40" as="geometry" />
        </mxCell>
        <mxCell id="SoAh3erIzKBtDHapFuTV-149" value="Gerbera" style="rounded=1;fillColor=#f08e81;strokeColor=none;strokeWidth=3;shadow=0;html=1;fontColor=#FFFFFF;fontSize=16;" parent="1" vertex="1">
          <mxGeometry x="561.5" y="1352.5" width="120" height="40" as="geometry" />
        </mxCell>
        <mxCell id="SoAh3erIzKBtDHapFuTV-150" value="Orchid" style="rounded=1;fillColor=#f08e81;strokeColor=none;strokeWidth=3;shadow=0;html=1;fontColor=#FFFFFF;fontSize=16;" parent="1" vertex="1">
          <mxGeometry x="686.5" y="1287.5" width="120" height="40" as="geometry" />
        </mxCell>
        <mxCell id="SoAh3erIzKBtDHapFuTV-151" value="Gladiola" style="rounded=1;fillColor=#f08e81;strokeColor=none;strokeWidth=3;shadow=0;html=1;fontColor=#FFFFFF;fontSize=16;" parent="1" vertex="1">
          <mxGeometry x="746.5" y="1220" width="120" height="40" as="geometry" />
        </mxCell>
        <mxCell id="SoAh3erIzKBtDHapFuTV-152" value="Rose" style="rounded=1;fillColor=#f08e81;strokeColor=none;strokeWidth=3;shadow=0;html=1;fontColor=#FFFFFF;fontSize=16;" parent="1" vertex="1">
          <mxGeometry x="766.5" y="1124.5" width="120" height="40" as="geometry" />
        </mxCell>
        <mxCell id="SoAh3erIzKBtDHapFuTV-153" value="" style="edgeStyle=none;endArrow=none;strokeWidth=3;strokeColor=#F08E81;html=1;rounded=1;fontSize=12;" parent="1" source="SoAh3erIzKBtDHapFuTV-7" target="SoAh3erIzKBtDHapFuTV-152" edge="1">
          <mxGeometry x="188.5" y="51.5" width="100" height="100" as="geometry">
            <mxPoint x="171.5" y="90" as="sourcePoint" />
            <mxPoint x="271.5" y="-10" as="targetPoint" />
          </mxGeometry>
        </mxCell>
        <mxCell id="SoAh3erIzKBtDHapFuTV-154" value="" style="edgeStyle=none;endArrow=none;strokeWidth=3;strokeColor=#F08E81;html=1;rounded=1;fontSize=12;" parent="1" source="SoAh3erIzKBtDHapFuTV-7" target="SoAh3erIzKBtDHapFuTV-141" edge="1">
          <mxGeometry x="188.5" y="51.5" width="100" height="100" as="geometry">
            <mxPoint x="171.5" y="90" as="sourcePoint" />
            <mxPoint x="271.5" y="-10" as="targetPoint" />
          </mxGeometry>
        </mxCell>
        <mxCell id="SoAh3erIzKBtDHapFuTV-155" value="" style="edgeStyle=none;endArrow=none;strokeWidth=3;strokeColor=#F08E81;html=1;rounded=1;fontSize=12;" parent="1" source="SoAh3erIzKBtDHapFuTV-7" target="SoAh3erIzKBtDHapFuTV-142" edge="1">
          <mxGeometry x="188.5" y="51.5" width="100" height="100" as="geometry">
            <mxPoint x="171.5" y="90" as="sourcePoint" />
            <mxPoint x="271.5" y="-10" as="targetPoint" />
          </mxGeometry>
        </mxCell>
        <mxCell id="SoAh3erIzKBtDHapFuTV-156" value="" style="edgeStyle=none;endArrow=none;strokeWidth=3;strokeColor=#F08E81;html=1;rounded=1;fontSize=12;" parent="1" source="SoAh3erIzKBtDHapFuTV-7" target="SoAh3erIzKBtDHapFuTV-143" edge="1">
          <mxGeometry x="188.5" y="51.5" width="100" height="100" as="geometry">
            <mxPoint x="171.5" y="90" as="sourcePoint" />
            <mxPoint x="271.5" y="-10" as="targetPoint" />
          </mxGeometry>
        </mxCell>
        <mxCell id="SoAh3erIzKBtDHapFuTV-157" value="" style="edgeStyle=none;endArrow=none;strokeWidth=3;strokeColor=#F08E81;html=1;rounded=1;fontSize=12;" parent="1" source="SoAh3erIzKBtDHapFuTV-7" target="SoAh3erIzKBtDHapFuTV-144" edge="1">
          <mxGeometry x="188.5" y="51.5" width="100" height="100" as="geometry">
            <mxPoint x="171.5" y="90" as="sourcePoint" />
            <mxPoint x="271.5" y="-10" as="targetPoint" />
          </mxGeometry>
        </mxCell>
        <mxCell id="SoAh3erIzKBtDHapFuTV-158" value="" style="edgeStyle=none;endArrow=none;strokeWidth=3;strokeColor=#F08E81;html=1;rounded=1;fontSize=12;" parent="1" source="SoAh3erIzKBtDHapFuTV-7" target="SoAh3erIzKBtDHapFuTV-145" edge="1">
          <mxGeometry x="188.5" y="51.5" width="100" height="100" as="geometry">
            <mxPoint x="171.5" y="90" as="sourcePoint" />
            <mxPoint x="271.5" y="-10" as="targetPoint" />
          </mxGeometry>
        </mxCell>
        <mxCell id="SoAh3erIzKBtDHapFuTV-159" value="" style="edgeStyle=none;endArrow=none;strokeWidth=3;strokeColor=#F08E81;html=1;rounded=1;fontSize=12;" parent="1" source="SoAh3erIzKBtDHapFuTV-7" target="SoAh3erIzKBtDHapFuTV-146" edge="1">
          <mxGeometry x="188.5" y="51.5" width="100" height="100" as="geometry">
            <mxPoint x="171.5" y="90" as="sourcePoint" />
            <mxPoint x="271.5" y="-10" as="targetPoint" />
          </mxGeometry>
        </mxCell>
        <mxCell id="SoAh3erIzKBtDHapFuTV-160" value="" style="edgeStyle=none;endArrow=none;strokeWidth=3;strokeColor=#F08E81;html=1;rounded=1;fontSize=12;" parent="1" source="SoAh3erIzKBtDHapFuTV-7" target="SoAh3erIzKBtDHapFuTV-147" edge="1">
          <mxGeometry x="188.5" y="51.5" width="100" height="100" as="geometry">
            <mxPoint x="171.5" y="90" as="sourcePoint" />
            <mxPoint x="271.5" y="-10" as="targetPoint" />
          </mxGeometry>
        </mxCell>
        <mxCell id="SoAh3erIzKBtDHapFuTV-161" value="" style="edgeStyle=none;endArrow=none;strokeWidth=3;strokeColor=#F08E81;html=1;rounded=1;fontSize=12;" parent="1" source="SoAh3erIzKBtDHapFuTV-7" target="SoAh3erIzKBtDHapFuTV-148" edge="1">
          <mxGeometry x="188.5" y="51.5" width="100" height="100" as="geometry">
            <mxPoint x="171.5" y="90" as="sourcePoint" />
            <mxPoint x="271.5" y="-10" as="targetPoint" />
          </mxGeometry>
        </mxCell>
        <mxCell id="SoAh3erIzKBtDHapFuTV-162" value="" style="edgeStyle=none;endArrow=none;strokeWidth=3;strokeColor=#F08E81;html=1;rounded=1;fontSize=12;" parent="1" source="SoAh3erIzKBtDHapFuTV-7" target="SoAh3erIzKBtDHapFuTV-149" edge="1">
          <mxGeometry x="188.5" y="51.5" width="100" height="100" as="geometry">
            <mxPoint x="171.5" y="90" as="sourcePoint" />
            <mxPoint x="271.5" y="-10" as="targetPoint" />
          </mxGeometry>
        </mxCell>
        <mxCell id="SoAh3erIzKBtDHapFuTV-163" value="" style="edgeStyle=none;endArrow=none;strokeWidth=3;strokeColor=#F08E81;html=1;rounded=1;fontSize=12;" parent="1" source="SoAh3erIzKBtDHapFuTV-7" target="SoAh3erIzKBtDHapFuTV-150" edge="1">
          <mxGeometry x="188.5" y="51.5" width="100" height="100" as="geometry">
            <mxPoint x="171.5" y="90" as="sourcePoint" />
            <mxPoint x="271.5" y="-10" as="targetPoint" />
          </mxGeometry>
        </mxCell>
        <mxCell id="SoAh3erIzKBtDHapFuTV-164" value="" style="edgeStyle=none;endArrow=none;strokeWidth=3;strokeColor=#F08E81;html=1;rounded=1;fontSize=12;" parent="1" source="SoAh3erIzKBtDHapFuTV-7" target="SoAh3erIzKBtDHapFuTV-151" edge="1">
          <mxGeometry x="188.5" y="51.5" width="100" height="100" as="geometry">
            <mxPoint x="171.5" y="90" as="sourcePoint" />
            <mxPoint x="271.5" y="-10" as="targetPoint" />
          </mxGeometry>
        </mxCell>
        <mxCell id="SoAh3erIzKBtDHapFuTV-165" style="edgeStyle=orthogonalEdgeStyle;rounded=1;html=1;exitX=0.75;exitY=0;entryX=0.75;entryY=0;startArrow=none;startFill=0;endArrow=block;endFill=1;jettySize=auto;orthogonalLoop=1;strokeColor=#12aab5;strokeWidth=6;fontSize=20;fontColor=#2F5B7C;" parent="1" source="SoAh3erIzKBtDHapFuTV-65" target="SoAh3erIzKBtDHapFuTV-65" edge="1">
          <mxGeometry relative="1" as="geometry" />
        </mxCell>
        <UserObject label="&lt;font style=&quot;font-size: 24px;&quot;&gt;LIVING&lt;br style=&quot;font-size: 24px;&quot;&gt;BEINGS&lt;br style=&quot;font-size: 24px;&quot;&gt;&lt;/font&gt;Click Here" id="SoAh3erIzKBtDHapFuTV-166">
          <mxCell style="whiteSpace=wrap;html=1;shadow=0;fontFamily=Helvetica;fontSize=24;fontColor=#333333;align=center;strokeColor=#666666;strokeWidth=6;fillColor=#f5f5f5;fontStyle=1;spacingTop=0;rounded=1;" parent="1" vertex="1">
            <mxGeometry x="1007" y="674" width="144" height="105" as="geometry" />
          </mxCell>
        </UserObject>
        <mxCell id="SoAh3erIzKBtDHapFuTV-167" value="Tree" style="ellipse;whiteSpace=wrap;html=1;shadow=0;fontFamily=Helvetica;fontSize=20;fontColor=#FFFFFF;align=center;strokeWidth=3;fillColor=#736ca8;strokeColor=none;rounded=1;" parent="1" vertex="1">
          <mxGeometry x="295" y="660" width="120" height="120" as="geometry" />
        </mxCell>
        <mxCell id="SoAh3erIzKBtDHapFuTV-168" value="Organisation" style="rounded=1;fillColor=#a29dc5;strokeColor=none;strokeWidth=3;shadow=0;html=1;fontColor=#FFFFFF;fontSize=16;" parent="1" vertex="1">
          <mxGeometry x="185" y="560" width="120" height="40" as="geometry" />
        </mxCell>
        <mxCell id="SoAh3erIzKBtDHapFuTV-169" value="Oak" style="rounded=1;fillColor=#a29dc5;strokeColor=none;strokeWidth=3;shadow=0;html=1;fontColor=#FFFFFF;fontSize=16;" parent="1" vertex="1">
          <mxGeometry x="292.5" y="500" width="120" height="40" as="geometry" />
        </mxCell>
        <mxCell id="SoAh3erIzKBtDHapFuTV-170" value="Birch" style="rounded=1;fillColor=#a29dc5;strokeColor=none;strokeWidth=3;shadow=0;html=1;fontColor=#FFFFFF;fontSize=16;" parent="1" vertex="1">
          <mxGeometry x="432.5" y="510" width="120" height="40" as="geometry" />
        </mxCell>
        <mxCell id="SoAh3erIzKBtDHapFuTV-171" value="Silverfern" style="rounded=1;fillColor=#a29dc5;strokeColor=none;strokeWidth=3;shadow=0;html=1;fontColor=#FFFFFF;fontSize=16;" parent="1" vertex="1">
          <mxGeometry x="497.5" y="580" width="120" height="40" as="geometry" />
        </mxCell>
        <mxCell id="SoAh3erIzKBtDHapFuTV-172" value="Personal &#xa;Development" style="rounded=1;fillColor=#a29dc5;strokeColor=none;strokeWidth=3;shadow=0;html=1;fontColor=#FFFFFF;fontSize=16;" parent="1" vertex="1">
          <mxGeometry x="522.5" y="660" width="120" height="40" as="geometry" />
        </mxCell>
        <mxCell id="SoAh3erIzKBtDHapFuTV-173" value="Pine" style="rounded=1;fillColor=#a29dc5;strokeColor=none;strokeWidth=3;shadow=0;html=1;fontColor=#FFFFFF;fontSize=16;" parent="1" vertex="1">
          <mxGeometry x="50" y="580" width="120" height="40" as="geometry" />
        </mxCell>
        <mxCell id="SoAh3erIzKBtDHapFuTV-174" value="Lime" style="rounded=1;fillColor=#a29dc5;strokeColor=none;strokeWidth=3;shadow=0;html=1;fontColor=#FFFFFF;fontSize=16;" parent="1" vertex="1">
          <mxGeometry x="455" y="770" width="120" height="40" as="geometry" />
        </mxCell>
        <mxCell id="SoAh3erIzKBtDHapFuTV-175" value="Chestnut" style="rounded=1;fillColor=#a29dc5;strokeColor=none;strokeWidth=3;shadow=0;html=1;fontColor=#FFFFFF;fontSize=16;" parent="1" vertex="1">
          <mxGeometry x="405" y="830" width="120" height="40" as="geometry" />
        </mxCell>
        <mxCell id="SoAh3erIzKBtDHapFuTV-176" value="Beech" style="rounded=1;fillColor=#a29dc5;strokeColor=none;strokeWidth=3;shadow=0;html=1;fontColor=#FFFFFF;fontSize=16;" parent="1" vertex="1">
          <mxGeometry x="265" y="830" width="120" height="40" as="geometry" />
        </mxCell>
        <mxCell id="SoAh3erIzKBtDHapFuTV-177" value="Poplar" style="rounded=1;fillColor=#a29dc5;strokeColor=none;strokeWidth=3;shadow=0;html=1;fontColor=#FFFFFF;fontSize=16;" parent="1" vertex="1">
          <mxGeometry x="125" y="795" width="120" height="40" as="geometry" />
        </mxCell>
        <mxCell id="SoAh3erIzKBtDHapFuTV-178" value="Willow" style="rounded=1;fillColor=#a29dc5;strokeColor=none;strokeWidth=3;shadow=0;html=1;fontColor=#FFFFFF;fontSize=16;" parent="1" vertex="1">
          <mxGeometry x="20" y="740" width="120" height="40" as="geometry" />
        </mxCell>
        <mxCell id="SoAh3erIzKBtDHapFuTV-179" value="" style="edgeStyle=none;endArrow=none;strokeWidth=3;strokeColor=#A29DC5;html=1;rounded=1;fontSize=12;" parent="1" source="SoAh3erIzKBtDHapFuTV-167" target="SoAh3erIzKBtDHapFuTV-168" edge="1">
          <mxGeometry x="-1498" y="-303.5" width="100" height="100" as="geometry">
            <mxPoint x="-1515" y="-265" as="sourcePoint" />
            <mxPoint x="-1415" y="-365" as="targetPoint" />
          </mxGeometry>
        </mxCell>
        <mxCell id="SoAh3erIzKBtDHapFuTV-180" value="Acacia" style="rounded=1;fillColor=#a29dc5;strokeColor=none;strokeWidth=3;shadow=0;html=1;fontColor=#FFFFFF;fontSize=16;" parent="1" vertex="1">
          <mxGeometry x="60" y="670" width="120" height="40" as="geometry" />
        </mxCell>
        <mxCell id="SoAh3erIzKBtDHapFuTV-181" value="" style="edgeStyle=none;endArrow=none;strokeWidth=3;strokeColor=#A29DC5;html=1;rounded=1;fontSize=12;" parent="1" source="SoAh3erIzKBtDHapFuTV-167" target="SoAh3erIzKBtDHapFuTV-169" edge="1">
          <mxGeometry x="-1498" y="-303.5" width="100" height="100" as="geometry">
            <mxPoint x="-1515" y="-265" as="sourcePoint" />
            <mxPoint x="-1415" y="-365" as="targetPoint" />
          </mxGeometry>
        </mxCell>
        <mxCell id="SoAh3erIzKBtDHapFuTV-182" value="" style="edgeStyle=none;endArrow=none;strokeWidth=3;strokeColor=#A29DC5;html=1;rounded=1;fontSize=12;" parent="1" source="SoAh3erIzKBtDHapFuTV-167" target="SoAh3erIzKBtDHapFuTV-170" edge="1">
          <mxGeometry x="-1498" y="-303.5" width="100" height="100" as="geometry">
            <mxPoint x="-1515" y="-265" as="sourcePoint" />
            <mxPoint x="-1415" y="-365" as="targetPoint" />
          </mxGeometry>
        </mxCell>
        <mxCell id="SoAh3erIzKBtDHapFuTV-183" value="" style="edgeStyle=none;endArrow=none;strokeWidth=3;strokeColor=#A29DC5;html=1;rounded=1;fontSize=12;" parent="1" source="SoAh3erIzKBtDHapFuTV-167" target="SoAh3erIzKBtDHapFuTV-171" edge="1">
          <mxGeometry x="-1498" y="-303.5" width="100" height="100" as="geometry">
            <mxPoint x="-1515" y="-265" as="sourcePoint" />
            <mxPoint x="-1415" y="-365" as="targetPoint" />
          </mxGeometry>
        </mxCell>
        <mxCell id="SoAh3erIzKBtDHapFuTV-184" value="" style="edgeStyle=none;endArrow=none;strokeWidth=3;strokeColor=#A29DC5;html=1;rounded=1;fontSize=12;" parent="1" source="SoAh3erIzKBtDHapFuTV-167" target="SoAh3erIzKBtDHapFuTV-172" edge="1">
          <mxGeometry x="-1498" y="-303.5" width="100" height="100" as="geometry">
            <mxPoint x="-1515" y="-265" as="sourcePoint" />
            <mxPoint x="-1415" y="-365" as="targetPoint" />
          </mxGeometry>
        </mxCell>
        <mxCell id="SoAh3erIzKBtDHapFuTV-185" value="" style="edgeStyle=none;endArrow=none;strokeWidth=3;strokeColor=#A29DC5;html=1;rounded=1;fontSize=12;" parent="1" source="SoAh3erIzKBtDHapFuTV-167" target="SoAh3erIzKBtDHapFuTV-173" edge="1">
          <mxGeometry x="-1498" y="-303.5" width="100" height="100" as="geometry">
            <mxPoint x="-1515" y="-265" as="sourcePoint" />
            <mxPoint x="-1415" y="-365" as="targetPoint" />
          </mxGeometry>
        </mxCell>
        <mxCell id="SoAh3erIzKBtDHapFuTV-186" value="" style="edgeStyle=none;endArrow=none;strokeWidth=3;strokeColor=#A29DC5;html=1;rounded=1;fontSize=12;" parent="1" source="SoAh3erIzKBtDHapFuTV-167" target="SoAh3erIzKBtDHapFuTV-174" edge="1">
          <mxGeometry x="-1498" y="-303.5" width="100" height="100" as="geometry">
            <mxPoint x="-1515" y="-265" as="sourcePoint" />
            <mxPoint x="-1415" y="-365" as="targetPoint" />
          </mxGeometry>
        </mxCell>
        <mxCell id="SoAh3erIzKBtDHapFuTV-187" value="" style="edgeStyle=none;endArrow=none;strokeWidth=3;strokeColor=#A29DC5;html=1;rounded=1;fontSize=12;" parent="1" source="SoAh3erIzKBtDHapFuTV-167" target="SoAh3erIzKBtDHapFuTV-175" edge="1">
          <mxGeometry x="-1498" y="-303.5" width="100" height="100" as="geometry">
            <mxPoint x="-1515" y="-265" as="sourcePoint" />
            <mxPoint x="-1415" y="-365" as="targetPoint" />
          </mxGeometry>
        </mxCell>
        <mxCell id="SoAh3erIzKBtDHapFuTV-188" value="" style="edgeStyle=none;endArrow=none;strokeWidth=3;strokeColor=#A29DC5;html=1;rounded=1;fontSize=12;" parent="1" source="SoAh3erIzKBtDHapFuTV-167" target="SoAh3erIzKBtDHapFuTV-176" edge="1">
          <mxGeometry x="-1498" y="-303.5" width="100" height="100" as="geometry">
            <mxPoint x="-1515" y="-265" as="sourcePoint" />
            <mxPoint x="-1415" y="-365" as="targetPoint" />
          </mxGeometry>
        </mxCell>
        <mxCell id="SoAh3erIzKBtDHapFuTV-189" value="" style="edgeStyle=none;endArrow=none;strokeWidth=3;strokeColor=#A29DC5;html=1;rounded=1;fontSize=12;" parent="1" source="SoAh3erIzKBtDHapFuTV-167" target="SoAh3erIzKBtDHapFuTV-177" edge="1">
          <mxGeometry x="-1498" y="-303.5" width="100" height="100" as="geometry">
            <mxPoint x="-1515" y="-265" as="sourcePoint" />
            <mxPoint x="-1415" y="-365" as="targetPoint" />
          </mxGeometry>
        </mxCell>
        <mxCell id="SoAh3erIzKBtDHapFuTV-190" value="" style="edgeStyle=none;endArrow=none;strokeWidth=3;strokeColor=#A29DC5;html=1;rounded=1;fontSize=12;" parent="1" source="SoAh3erIzKBtDHapFuTV-167" target="SoAh3erIzKBtDHapFuTV-178" edge="1">
          <mxGeometry x="-1498" y="-303.5" width="100" height="100" as="geometry">
            <mxPoint x="-1515" y="-265" as="sourcePoint" />
            <mxPoint x="-1415" y="-365" as="targetPoint" />
          </mxGeometry>
        </mxCell>
        <mxCell id="SoAh3erIzKBtDHapFuTV-191" value="" style="edgeStyle=none;endArrow=none;strokeWidth=3;strokeColor=#A29DC5;html=1;rounded=1;fontSize=12;" parent="1" source="SoAh3erIzKBtDHapFuTV-167" target="SoAh3erIzKBtDHapFuTV-180" edge="1">
          <mxGeometry x="-1498" y="-303.5" width="100" height="100" as="geometry">
            <mxPoint x="-1515" y="-265" as="sourcePoint" />
            <mxPoint x="-1415" y="-365" as="targetPoint" />
          </mxGeometry>
        </mxCell>
        <mxCell id="SoAh3erIzKBtDHapFuTV-192" value="" style="edgeStyle=none;endArrow=none;strokeWidth=3;strokeColor=#A29DC5;html=1;rounded=1;fontSize=12;" parent="1" source="SoAh3erIzKBtDHapFuTV-5" target="SoAh3erIzKBtDHapFuTV-110" edge="1">
          <mxGeometry x="-1174" y="-408.5" width="100" height="100" as="geometry">
            <mxPoint x="-1191" y="-370" as="sourcePoint" />
            <mxPoint x="-1091" y="-470" as="targetPoint" />
          </mxGeometry>
        </mxCell>
        <mxCell id="SoAh3erIzKBtDHapFuTV-193" style="edgeStyle=none;rounded=1;html=1;exitX=0.5;exitY=1;endArrow=none;endFill=0;jettySize=auto;orthogonalLoop=1;strokeColor=#736CA8;strokeWidth=2;fillColor=#64bbe2;fontSize=20;fontColor=#23445D;" parent="1" source="SoAh3erIzKBtDHapFuTV-180" target="SoAh3erIzKBtDHapFuTV-180" edge="1">
          <mxGeometry relative="1" as="geometry" />
        </mxCell>
      </root>
    </mxGraphModel>
  </diagram>
  <diagram id="U_Uvks4AkWzQ786w-EUC" name="第 2 页">
    <mxGraphModel dx="2362" dy="810" grid="1" gridSize="10" guides="1" tooltips="1" connect="1" arrows="1" fold="1" page="0" pageScale="1" pageWidth="827" pageHeight="1169" background="none" math="0" shadow="1">
      <root>
        <mxCell id="0" />
        <mxCell id="1" parent="0" />
        <mxCell id="ldeiu67JCMKbHvtVbnyd-16" value="" style="group;labelBackgroundColor=none;rounded=1;movable=0;resizable=0;rotatable=0;deletable=0;editable=0;locked=1;connectable=0;" vertex="1" connectable="0" parent="1">
          <mxGeometry y="1250" width="760" height="680" as="geometry" />
        </mxCell>
        <object placeholders="1" c4Name="Kdm Image" c4Type="KdmImage" c4Application="the knowdee module of image embedding" label="&lt;font style=&quot;font-size: 16px&quot;&gt;&lt;span&gt;&lt;div style=&quot;&quot;&gt;%c4Name%&lt;/div&gt;&lt;/span&gt;&lt;/font&gt;&lt;div style=&quot;&quot;&gt;[%c4Application%]&lt;/div&gt;" id="favXn3JoN5OpGqjl_VLs-4">
          <mxCell style="rounded=1;fontSize=11;whiteSpace=wrap;html=1;arcSize=20;fillColor=none;strokeColor=#1061B0;fontColor=#1061B0;labelBackgroundColor=none;align=center;verticalAlign=bottom;labelBorderColor=none;spacingTop=0;spacing=10;metaEdit=1;rotatable=0;perimeter=rectanglePerimeter;labelPadding=0;allowArrows=0;connectable=0;expand=0;recursiveResize=0;editable=0;pointerEvents=0;absoluteArcSize=1;points=[[0.25,0,0],[0.5,0,0],[0.75,0,0],[1,0.25,0],[1,0.5,0],[1,0.75,0],[0.75,1,0],[0.5,1,0],[0.25,1,0],[0,0.75,0],[0,0.5,0],[0,0.25,0]];strokeWidth=2;fontStyle=1;movable=0;resizable=0;deletable=0;locked=1;" vertex="1" parent="ldeiu67JCMKbHvtVbnyd-16">
            <mxGeometry width="760" height="680" as="geometry" />
          </mxCell>
        </object>
        <mxCell id="ldeiu67JCMKbHvtVbnyd-14" value="" style="group;movable=0;resizable=0;rotatable=0;deletable=0;editable=0;locked=1;connectable=0;" vertex="1" connectable="0" parent="ldeiu67JCMKbHvtVbnyd-16">
          <mxGeometry x="400" y="40" width="320" height="560" as="geometry" />
        </mxCell>
        <object placeholders="1" c4Name="Image Process" c4Type="Componet" c4Technology="graphicsmagick" c4Description="the component of image process" label="&lt;font style=&quot;font-size: 16px&quot;&gt;&lt;b&gt;%c4Name%&lt;/b&gt;&lt;/font&gt;&lt;div&gt;[%c4Type%: %c4Technology%]&lt;/div&gt;&lt;br&gt;&lt;div&gt;&lt;font style=&quot;font-size: 11px&quot;&gt;%c4Description%&lt;/font&gt;&lt;/div&gt;" id="ldeiu67JCMKbHvtVbnyd-10">
          <mxCell style="rounded=1;whiteSpace=wrap;html=1;labelBackgroundColor=none;fillColor=#1061B0;fontColor=#ffffff;align=center;arcSize=6;strokeColor=#2086C9;metaEdit=1;resizable=0;points=[[0.25,0,0],[0.5,0,0],[0.75,0,0],[1,0.25,0],[1,0.5,0],[1,0.75,0],[0.75,1,0],[0.5,1,0],[0.25,1,0],[0,0.75,0],[0,0.5,0],[0,0.25,0]];gradientColor=none;shadow=0;glass=0;movable=0;rotatable=0;deletable=0;editable=0;locked=1;connectable=0;" vertex="1" parent="ldeiu67JCMKbHvtVbnyd-14">
            <mxGeometry x="40" y="40" width="240" height="120" as="geometry" />
          </mxCell>
        </object>
        <object placeholders="1" c4Name="Matrix Compute" c4Type="Componet" c4Technology="eigen" c4Description="the component of matrix compute" label="&lt;font style=&quot;font-size: 16px&quot;&gt;&lt;b&gt;%c4Name%&lt;/b&gt;&lt;/font&gt;&lt;div&gt;[%c4Type%: %c4Technology%]&lt;/div&gt;&lt;br&gt;&lt;div&gt;&lt;font style=&quot;font-size: 11px&quot;&gt;%c4Description%&lt;/font&gt;&lt;/div&gt;" id="ldeiu67JCMKbHvtVbnyd-11">
          <mxCell style="rounded=1;whiteSpace=wrap;html=1;labelBackgroundColor=none;fillColor=#1061B0;fontColor=#ffffff;align=center;arcSize=6;strokeColor=#2086C9;metaEdit=1;resizable=0;points=[[0.25,0,0],[0.5,0,0],[0.75,0,0],[1,0.25,0],[1,0.5,0],[1,0.75,0],[0.75,1,0],[0.5,1,0],[0.25,1,0],[0,0.75,0],[0,0.5,0],[0,0.25,0]];movable=0;rotatable=0;deletable=0;editable=0;locked=1;connectable=0;shadow=0;" vertex="1" parent="ldeiu67JCMKbHvtVbnyd-14">
            <mxGeometry x="40" y="200" width="240" height="120" as="geometry" />
          </mxCell>
        </object>
        <object placeholders="1" c4Name="Image Model" c4Type="Componet" c4Technology="onnx" c4Description="the component of image model" label="&lt;font style=&quot;font-size: 16px&quot;&gt;&lt;b&gt;%c4Name%&lt;/b&gt;&lt;/font&gt;&lt;div&gt;[%c4Type%: %c4Technology%]&lt;/div&gt;&lt;br&gt;&lt;div&gt;&lt;font style=&quot;font-size: 11px&quot;&gt;%c4Description%&lt;/font&gt;&lt;/div&gt;" id="ldeiu67JCMKbHvtVbnyd-12">
          <mxCell style="rounded=1;whiteSpace=wrap;html=1;labelBackgroundColor=none;fillColor=#1061B0;fontColor=#ffffff;align=center;arcSize=6;strokeColor=#2086C9;metaEdit=1;resizable=0;points=[[0.25,0,0],[0.5,0,0],[0.75,0,0],[1,0.25,0],[1,0.5,0],[1,0.75,0],[0.75,1,0],[0.5,1,0],[0.25,1,0],[0,0.75,0],[0,0.5,0],[0,0.25,0]];movable=0;rotatable=0;deletable=0;editable=0;locked=1;connectable=0;shadow=0;" vertex="1" parent="ldeiu67JCMKbHvtVbnyd-14">
            <mxGeometry x="40" y="360" width="240" height="120" as="geometry" />
          </mxCell>
        </object>
        <object placeholders="1" c4Name="Embedding Image" c4Type="EmbeddingApi" c4Application="EmbeddingApi" label="&lt;font style=&quot;font-size: 16px&quot;&gt;&lt;b&gt;&lt;div style=&quot;&quot;&gt;%c4Name%&lt;/div&gt;&lt;/b&gt;&lt;/font&gt;&lt;div style=&quot;&quot;&gt;[%c4Application%]&lt;/div&gt;" id="ldeiu67JCMKbHvtVbnyd-13">
          <mxCell style="rounded=1;fontSize=11;whiteSpace=wrap;html=1;dashed=1;arcSize=20;fillColor=none;strokeColor=#1061B0;fontColor=#1061B0;labelBackgroundColor=none;align=center;verticalAlign=bottom;labelBorderColor=none;spacingTop=0;spacing=10;dashPattern=8 4;metaEdit=1;rotatable=0;perimeter=rectanglePerimeter;labelPadding=0;allowArrows=0;connectable=0;expand=0;recursiveResize=0;editable=0;pointerEvents=0;absoluteArcSize=1;points=[[0.25,0,0],[0.5,0,0],[0.75,0,0],[1,0.25,0],[1,0.5,0],[1,0.75,0],[0.75,1,0],[0.5,1,0],[0.25,1,0],[0,0.75,0],[0,0.5,0],[0,0.25,0]];movable=0;resizable=0;deletable=0;locked=1;shadow=0;" vertex="1" parent="ldeiu67JCMKbHvtVbnyd-14">
            <mxGeometry width="320" height="560" as="geometry" />
          </mxCell>
        </object>
        <mxCell id="ldeiu67JCMKbHvtVbnyd-15" value="" style="group;align=center;movable=0;resizable=0;rotatable=0;deletable=0;editable=0;locked=1;connectable=0;" vertex="1" connectable="0" parent="ldeiu67JCMKbHvtVbnyd-16">
          <mxGeometry x="40" y="40" width="320" height="560" as="geometry" />
        </mxCell>
        <object placeholders="1" c4Name="Tokenizer" c4Type="Componet" c4Technology="fast_tokenizer" c4Description="the component of tokenizer" label="&lt;font style=&quot;font-size: 16px&quot;&gt;&lt;b&gt;%c4Name%&lt;/b&gt;&lt;/font&gt;&lt;div&gt;[%c4Type%: %c4Technology%]&lt;/div&gt;&lt;br&gt;&lt;div&gt;&lt;font style=&quot;font-size: 11px&quot;&gt;%c4Description%&lt;/font&gt;&lt;/div&gt;" id="ldeiu67JCMKbHvtVbnyd-4">
          <mxCell style="rounded=1;whiteSpace=wrap;html=1;labelBackgroundColor=none;fillColor=#1061B0;fontColor=#ffffff;align=center;arcSize=6;strokeColor=#2086C9;metaEdit=1;resizable=0;points=[[0.25,0,0],[0.5,0,0],[0.75,0,0],[1,0.25,0],[1,0.5,0],[1,0.75,0],[0.75,1,0],[0.5,1,0],[0.25,1,0],[0,0.75,0],[0,0.5,0],[0,0.25,0]];movable=0;rotatable=0;deletable=0;editable=0;locked=1;connectable=0;shadow=0;" vertex="1" parent="ldeiu67JCMKbHvtVbnyd-15">
            <mxGeometry x="40" y="80" width="240" height="120" as="geometry" />
          </mxCell>
        </object>
        <object placeholders="1" c4Name="Text Model" c4Type="Componet" c4Technology="onnx" c4Description="the component of text model" label="&lt;font style=&quot;font-size: 16px&quot;&gt;&lt;b&gt;%c4Name%&lt;/b&gt;&lt;/font&gt;&lt;div&gt;[%c4Type%: %c4Technology%]&lt;/div&gt;&lt;br&gt;&lt;div&gt;&lt;font style=&quot;font-size: 11px&quot;&gt;%c4Description%&lt;/font&gt;&lt;/div&gt;" id="ldeiu67JCMKbHvtVbnyd-5">
          <mxCell style="rounded=1;whiteSpace=wrap;html=1;labelBackgroundColor=none;fillColor=#1061B0;fontColor=#ffffff;align=center;arcSize=6;strokeColor=#2086C9;metaEdit=1;resizable=0;points=[[0.25,0,0],[0.5,0,0],[0.75,0,0],[1,0.25,0],[1,0.5,0],[1,0.75,0],[0.75,1,0],[0.5,1,0],[0.25,1,0],[0,0.75,0],[0,0.5,0],[0,0.25,0]];movable=0;rotatable=0;deletable=0;editable=0;locked=1;connectable=0;shadow=0;" vertex="1" parent="ldeiu67JCMKbHvtVbnyd-15">
            <mxGeometry x="40" y="320" width="240" height="120" as="geometry" />
          </mxCell>
        </object>
        <object placeholders="1" c4Name="Embedding Text" c4Type="EmbeddingApi" c4Application="EmbeddingApi" label="&lt;font style=&quot;font-size: 16px&quot;&gt;&lt;b&gt;&lt;div style=&quot;&quot;&gt;%c4Name%&lt;/div&gt;&lt;/b&gt;&lt;/font&gt;&lt;div style=&quot;&quot;&gt;[%c4Application%]&lt;/div&gt;" id="ldeiu67JCMKbHvtVbnyd-6">
          <mxCell style="rounded=1;fontSize=11;whiteSpace=wrap;html=1;dashed=1;arcSize=20;fillColor=none;strokeColor=#1061B0;fontColor=#1061B0;labelBackgroundColor=none;align=center;verticalAlign=bottom;labelBorderColor=none;spacingTop=0;spacing=10;dashPattern=8 4;metaEdit=1;rotatable=0;perimeter=rectanglePerimeter;labelPadding=0;allowArrows=0;connectable=0;expand=0;recursiveResize=0;editable=0;pointerEvents=0;absoluteArcSize=1;points=[[0.25,0,0],[0.5,0,0],[0.75,0,0],[1,0.25,0],[1,0.5,0],[1,0.75,0],[0.75,1,0],[0.5,1,0],[0.25,1,0],[0,0.75,0],[0,0.5,0],[0,0.25,0]];movable=0;resizable=0;deletable=0;locked=1;shadow=0;" vertex="1" parent="ldeiu67JCMKbHvtVbnyd-15">
            <mxGeometry width="320" height="560" as="geometry" />
          </mxCell>
        </object>
        <mxCell id="GOHMVVGOKaV0fo8kliWJ-33" value="Actor" style="shape=umlActor;verticalLabelPosition=bottom;verticalAlign=top;html=1;" parent="1" vertex="1">
          <mxGeometry x="-633" y="237" width="30" height="60" as="geometry" />
        </mxCell>
        <mxCell id="GOHMVVGOKaV0fo8kliWJ-45" value="Model Text" style="shape=folder;fontStyle=1;tabWidth=110;tabHeight=30;tabPosition=left;html=1;boundedLbl=1;folderSymbol=triangle;whiteSpace=wrap;" parent="1" vertex="1">
          <mxGeometry x="254" y="1026" width="150" height="80" as="geometry" />
        </mxCell>
        <mxCell id="GOHMVVGOKaV0fo8kliWJ-48" value="Model Image" style="shape=folder;fontStyle=1;tabWidth=110;tabHeight=30;tabPosition=left;html=1;boundedLbl=1;folderSymbol=triangle;whiteSpace=wrap;" parent="1" vertex="1">
          <mxGeometry x="418" y="1031" width="150" height="80" as="geometry" />
        </mxCell>
        <mxCell id="GOHMVVGOKaV0fo8kliWJ-52" value="Vocabulary/Tokens" style="whiteSpace=wrap;html=1;fontStyle=1;" parent="1" vertex="1">
          <mxGeometry x="125" y="1049" width="120" height="60" as="geometry" />
        </mxCell>
        <mxCell id="GOHMVVGOKaV0fo8kliWJ-92" value="&lt;p style=&quot;margin:0px;margin-top:6px;text-align:center;&quot;&gt;&lt;b&gt;Component&lt;/b&gt;&lt;/p&gt;&lt;hr size=&quot;1&quot; style=&quot;border-style:solid;&quot;/&gt;&lt;p style=&quot;margin:0px;margin-left:8px;&quot;&gt;+ Attribute1: Type&lt;br/&gt;+ Attribute2: Type&lt;/p&gt;" style="align=left;overflow=fill;html=1;dropTarget=0;whiteSpace=wrap;" parent="1" vertex="1">
          <mxGeometry x="604" y="338.5" width="180" height="90" as="geometry" />
        </mxCell>
        <mxCell id="GOHMVVGOKaV0fo8kliWJ-93" value="" style="shape=component;jettyWidth=8;jettyHeight=4;" parent="GOHMVVGOKaV0fo8kliWJ-92" vertex="1">
          <mxGeometry x="1" width="20" height="20" relative="1" as="geometry">
            <mxPoint x="-24" y="4" as="offset" />
          </mxGeometry>
        </mxCell>
        <mxCell id="GOHMVVGOKaV0fo8kliWJ-94" value="&lt;p style=&quot;margin:0px;margin-top:4px;text-align:center;text-decoration:underline;&quot;&gt;&lt;b&gt;Object:Type&lt;/b&gt;&lt;/p&gt;&lt;hr size=&quot;1&quot; style=&quot;border-style:solid;&quot;/&gt;&lt;p style=&quot;margin:0px;margin-left:8px;&quot;&gt;field1 = value1&lt;br/&gt;field2 = value2&lt;br&gt;field3 = value3&lt;/p&gt;" style="verticalAlign=top;align=left;overflow=fill;html=1;whiteSpace=wrap;" parent="1" vertex="1">
          <mxGeometry x="608" y="741" width="160" height="90" as="geometry" />
        </mxCell>
        <mxCell id="GOHMVVGOKaV0fo8kliWJ-97" value="KdmImage" style="swimlane;fontStyle=1;align=center;verticalAlign=top;childLayout=stackLayout;horizontal=1;startSize=26;horizontalStack=0;resizeParent=1;resizeParentMax=0;resizeLast=0;collapsible=1;marginBottom=0;whiteSpace=wrap;html=1;" parent="1" vertex="1">
          <mxGeometry x="-83" y="114" width="267" height="164" as="geometry">
            <mxRectangle x="-83" y="114" width="93" height="26" as="alternateBounds" />
          </mxGeometry>
        </mxCell>
        <mxCell id="GOHMVVGOKaV0fo8kliWJ-98" value="+ init_: bool&amp;nbsp;&amp;nbsp;&lt;span style=&quot;color: rgba(0, 0, 0, 0); font-family: monospace; font-size: 0px; text-wrap: nowrap;&quot;&gt;%3CmxGraphModel%3E%3Croot%3E%3CmxCell%20id%3D%220%22%2F%3E%3CmxCell%20id%3D%221%22%20parent%3D%220%22%2F%3E%3CmxCell%20id%3D%222%22%20value%3D%22%22%20style%3D%22shape%3Dmodule%3BjettyWidth%3D10%3BjettyHeight%3D4%3Brotation%3D0%3B%22%20vertex%3D%221%22%20parent%3D%221%22%3E%3CmxGeometry%20x%3D%22125.5%22%20y%3D%22347.5%22%20width%3D%2216%22%20height%3D%2220%22%20as%3D%22geometry%22%2F%3E%3C%2FmxCell%3E%3C%2Froot%3E%3C%2FmxGraphModel%3E&lt;/span&gt;&lt;span style=&quot;color: rgba(0, 0, 0, 0); font-family: monospace; font-size: 0px; text-wrap: nowrap;&quot;&gt;%3CmxGraphModel%3E%3Croot%3E%3CmxCell%20id%3D%220%22%2F%3E%3CmxCell%20id%3D%221%22%20parent%3D%220%22%2F%3E%3CmxCell%20id%3D%222%22%20value%3D%22%22%20style%3D%22shape%3Dmodule%3BjettyWidth%3D10%3BjettyHeight%3D4%3Brotation%3D0%3B%22%20vertex%3D%221%22%20parent%3D%221%22%3E%3CmxGeometry%20x%3D%22125.5%22%20y%3D%22347.5%22%20width%3D%2216%22%20height%3D%2220%22%20as%3D%22geometry%22%2F%3E%3C%2FmxCell%3E%3C%2Froot%3E%3C%2FmxGraphModel%3E&lt;/span&gt;&lt;span style=&quot;color: rgba(0, 0, 0, 0); font-family: monospace; font-size: 0px; text-wrap: nowrap;&quot;&gt;%3CmxGraphModel%3E%3Croot%3E%3CmxCell%20id%3D%220%22%2F%3E%3CmxCell%20id%3D%221%22%20parent%3D%220%22%2F%3E%3CmxCell%20id%3D%222%22%20value%3D%22%22%20style%3D%22shape%3Dmodule%3BjettyWidth%3D10%3BjettyHeight%3D4%3Brotation%3D0%3B%22%20vertex%3D%221%22%20parent%3D%221%22%3E%3CmxGeometry%20x%3D%22125.5%22%20y%3D%22347.5%22%20width%3D%2216%22%20height%3D%2220%22%20as%3D%22geometry%22%2F%3E%3C%2FmxCell%3E%3C%2Froot%3E%3C%2FmxGraphModel%3E&lt;/span&gt;" style="text;strokeColor=none;fillColor=none;align=left;verticalAlign=top;spacingLeft=4;spacingRight=4;overflow=hidden;rotatable=0;points=[[0,0.5],[1,0.5]];portConstraint=eastwest;whiteSpace=wrap;html=1;" parent="GOHMVVGOKaV0fo8kliWJ-97" vertex="1">
          <mxGeometry y="26" width="267" height="26" as="geometry" />
        </mxCell>
        <mxCell id="GOHMVVGOKaV0fo8kliWJ-99" value="" style="line;strokeWidth=1;fillColor=none;align=left;verticalAlign=middle;spacingTop=-1;spacingLeft=3;spacingRight=3;rotatable=0;labelPosition=right;points=[];portConstraint=eastwest;strokeColor=inherit;" parent="GOHMVVGOKaV0fo8kliWJ-97" vertex="1">
          <mxGeometry y="52" width="267" height="8" as="geometry" />
        </mxCell>
        <mxCell id="GOHMVVGOKaV0fo8kliWJ-100" value="+ Init(string): ErrorInfo" style="text;strokeColor=none;fillColor=none;align=left;verticalAlign=top;spacingLeft=4;spacingRight=4;overflow=hidden;rotatable=0;points=[[0,0.5],[1,0.5]];portConstraint=eastwest;whiteSpace=wrap;html=1;" parent="GOHMVVGOKaV0fo8kliWJ-97" vertex="1">
          <mxGeometry y="60" width="267" height="26" as="geometry" />
        </mxCell>
        <mxCell id="GOHMVVGOKaV0fo8kliWJ-124" value="+ Exit(): ErrorInfo" style="text;strokeColor=none;fillColor=none;align=left;verticalAlign=top;spacingLeft=4;spacingRight=4;overflow=hidden;rotatable=0;points=[[0,0.5],[1,0.5]];portConstraint=eastwest;whiteSpace=wrap;html=1;" parent="GOHMVVGOKaV0fo8kliWJ-97" vertex="1">
          <mxGeometry y="86" width="267" height="26" as="geometry" />
        </mxCell>
        <mxCell id="GOHMVVGOKaV0fo8kliWJ-123" value="+ Embeddingtext(): ErrorInfo" style="text;strokeColor=none;fillColor=none;align=left;verticalAlign=top;spacingLeft=4;spacingRight=4;overflow=hidden;rotatable=0;points=[[0,0.5],[1,0.5]];portConstraint=eastwest;whiteSpace=wrap;html=1;" parent="GOHMVVGOKaV0fo8kliWJ-97" vertex="1">
          <mxGeometry y="112" width="267" height="26" as="geometry" />
        </mxCell>
        <mxCell id="GOHMVVGOKaV0fo8kliWJ-101" value="+ Embeddingimage(): ErrorInfo" style="text;strokeColor=none;fillColor=none;align=left;verticalAlign=top;spacingLeft=4;spacingRight=4;overflow=hidden;rotatable=0;points=[[0,0.5],[1,0.5]];portConstraint=eastwest;whiteSpace=wrap;html=1;" parent="GOHMVVGOKaV0fo8kliWJ-97" vertex="1">
          <mxGeometry y="138" width="267" height="26" as="geometry" />
        </mxCell>
        <mxCell id="GOHMVVGOKaV0fo8kliWJ-103" value="The Image Embedding" style="text;align=center;fontStyle=1;verticalAlign=middle;spacingLeft=3;spacingRight=3;strokeColor=none;rotatable=0;points=[[0,0.5],[1,0.5]];portConstraint=eastwest;html=1;" parent="1" vertex="1">
          <mxGeometry x="-538" y="171" width="161.5" height="26" as="geometry" />
        </mxCell>
        <mxCell id="GOHMVVGOKaV0fo8kliWJ-104" value="Classname" style="swimlane;fontStyle=0;childLayout=stackLayout;horizontal=1;startSize=26;fillColor=none;horizontalStack=0;resizeParent=1;resizeParentMax=0;resizeLast=0;collapsible=1;marginBottom=0;whiteSpace=wrap;html=1;" parent="1" vertex="1">
          <mxGeometry x="620" y="945" width="140" height="104" as="geometry">
            <mxRectangle x="-496" y="690" width="95" height="26" as="alternateBounds" />
          </mxGeometry>
        </mxCell>
        <mxCell id="GOHMVVGOKaV0fo8kliWJ-105" value="+ field: type" style="text;strokeColor=none;fillColor=none;align=left;verticalAlign=top;spacingLeft=4;spacingRight=4;overflow=hidden;rotatable=0;points=[[0,0.5],[1,0.5]];portConstraint=eastwest;whiteSpace=wrap;html=1;" parent="GOHMVVGOKaV0fo8kliWJ-104" vertex="1">
          <mxGeometry y="26" width="140" height="26" as="geometry" />
        </mxCell>
        <mxCell id="GOHMVVGOKaV0fo8kliWJ-106" value="+ field: type" style="text;strokeColor=none;fillColor=none;align=left;verticalAlign=top;spacingLeft=4;spacingRight=4;overflow=hidden;rotatable=0;points=[[0,0.5],[1,0.5]];portConstraint=eastwest;whiteSpace=wrap;html=1;" parent="GOHMVVGOKaV0fo8kliWJ-104" vertex="1">
          <mxGeometry y="52" width="140" height="26" as="geometry" />
        </mxCell>
        <mxCell id="GOHMVVGOKaV0fo8kliWJ-107" value="+ field: type" style="text;strokeColor=none;fillColor=none;align=left;verticalAlign=top;spacingLeft=4;spacingRight=4;overflow=hidden;rotatable=0;points=[[0,0.5],[1,0.5]];portConstraint=eastwest;whiteSpace=wrap;html=1;" parent="GOHMVVGOKaV0fo8kliWJ-104" vertex="1">
          <mxGeometry y="78" width="140" height="26" as="geometry" />
        </mxCell>
        <mxCell id="GOHMVVGOKaV0fo8kliWJ-111" value="1" style="endArrow=open;html=1;endSize=12;startArrow=diamondThin;startSize=14;startFill=0;edgeStyle=orthogonalEdgeStyle;align=left;verticalAlign=bottom;rounded=0;fontSize=12;curved=1;" parent="1" edge="1">
          <mxGeometry x="-1" y="3" relative="1" as="geometry">
            <mxPoint x="656" y="587" as="sourcePoint" />
            <mxPoint x="816" y="587" as="targetPoint" />
          </mxGeometry>
        </mxCell>
        <mxCell id="GOHMVVGOKaV0fo8kliWJ-115" value="«interface»&lt;br&gt;&lt;b&gt;EmbeddingApi&lt;/b&gt;" style="html=1;whiteSpace=wrap;" parent="1" vertex="1">
          <mxGeometry x="55" y="540" width="221" height="163" as="geometry" />
        </mxCell>
        <mxCell id="GOHMVVGOKaV0fo8kliWJ-117" value="" style="endArrow=none;html=1;edgeStyle=orthogonalEdgeStyle;rounded=0;fontSize=12;startSize=8;endSize=8;curved=1;exitX=1;exitY=0.5;exitDx=0;exitDy=0;entryX=0.5;entryY=0;entryDx=0;entryDy=0;" parent="1" source="GOHMVVGOKaV0fo8kliWJ-115" target="GOHMVVGOKaV0fo8kliWJ-129" edge="1">
          <mxGeometry relative="1" as="geometry">
            <mxPoint x="227" y="778" as="sourcePoint" />
            <mxPoint x="387" y="778" as="targetPoint" />
          </mxGeometry>
        </mxCell>
        <mxCell id="GOHMVVGOKaV0fo8kliWJ-118" value="parent" style="edgeLabel;resizable=0;html=1;align=left;verticalAlign=bottom;" parent="GOHMVVGOKaV0fo8kliWJ-117" connectable="0" vertex="1">
          <mxGeometry x="-1" relative="1" as="geometry" />
        </mxCell>
        <mxCell id="GOHMVVGOKaV0fo8kliWJ-119" value="child" style="edgeLabel;resizable=0;html=1;align=right;verticalAlign=bottom;" parent="GOHMVVGOKaV0fo8kliWJ-117" connectable="0" vertex="1">
          <mxGeometry x="1" relative="1" as="geometry" />
        </mxCell>
        <mxCell id="GOHMVVGOKaV0fo8kliWJ-120" value="" style="endArrow=none;html=1;edgeStyle=orthogonalEdgeStyle;rounded=0;fontSize=12;startSize=8;endSize=8;curved=1;exitX=0;exitY=0.5;exitDx=0;exitDy=0;entryX=0.5;entryY=0;entryDx=0;entryDy=0;" parent="1" source="GOHMVVGOKaV0fo8kliWJ-115" target="GOHMVVGOKaV0fo8kliWJ-125" edge="1">
          <mxGeometry relative="1" as="geometry">
            <mxPoint x="-180" y="747" as="sourcePoint" />
            <mxPoint x="-206" y="771" as="targetPoint" />
          </mxGeometry>
        </mxCell>
        <mxCell id="GOHMVVGOKaV0fo8kliWJ-121" value="parent" style="edgeLabel;resizable=0;html=1;align=left;verticalAlign=bottom;" parent="GOHMVVGOKaV0fo8kliWJ-120" connectable="0" vertex="1">
          <mxGeometry x="-1" relative="1" as="geometry" />
        </mxCell>
        <mxCell id="GOHMVVGOKaV0fo8kliWJ-122" value="child" style="edgeLabel;resizable=0;html=1;align=right;verticalAlign=bottom;" parent="GOHMVVGOKaV0fo8kliWJ-120" connectable="0" vertex="1">
          <mxGeometry x="1" relative="1" as="geometry" />
        </mxCell>
        <mxCell id="GOHMVVGOKaV0fo8kliWJ-125" value="EmbeddingText" style="swimlane;fontStyle=1;align=center;verticalAlign=top;childLayout=stackLayout;horizontal=1;startSize=26;horizontalStack=0;resizeParent=1;resizeParentMax=0;resizeLast=0;collapsible=1;marginBottom=0;whiteSpace=wrap;html=1;" parent="1" vertex="1">
          <mxGeometry x="-297" y="775" width="160" height="86" as="geometry" />
        </mxCell>
        <mxCell id="GOHMVVGOKaV0fo8kliWJ-126" value="+ field: type" style="text;strokeColor=none;fillColor=none;align=left;verticalAlign=top;spacingLeft=4;spacingRight=4;overflow=hidden;rotatable=0;points=[[0,0.5],[1,0.5]];portConstraint=eastwest;whiteSpace=wrap;html=1;" parent="GOHMVVGOKaV0fo8kliWJ-125" vertex="1">
          <mxGeometry y="26" width="160" height="26" as="geometry" />
        </mxCell>
        <mxCell id="GOHMVVGOKaV0fo8kliWJ-127" value="" style="line;strokeWidth=1;fillColor=none;align=left;verticalAlign=middle;spacingTop=-1;spacingLeft=3;spacingRight=3;rotatable=0;labelPosition=right;points=[];portConstraint=eastwest;strokeColor=inherit;" parent="GOHMVVGOKaV0fo8kliWJ-125" vertex="1">
          <mxGeometry y="52" width="160" height="8" as="geometry" />
        </mxCell>
        <mxCell id="GOHMVVGOKaV0fo8kliWJ-128" value="+ method(type): type" style="text;strokeColor=none;fillColor=none;align=left;verticalAlign=top;spacingLeft=4;spacingRight=4;overflow=hidden;rotatable=0;points=[[0,0.5],[1,0.5]];portConstraint=eastwest;whiteSpace=wrap;html=1;" parent="GOHMVVGOKaV0fo8kliWJ-125" vertex="1">
          <mxGeometry y="60" width="160" height="26" as="geometry" />
        </mxCell>
        <mxCell id="GOHMVVGOKaV0fo8kliWJ-129" value="EmbeddingImage" style="swimlane;fontStyle=1;align=center;verticalAlign=top;childLayout=stackLayout;horizontal=1;startSize=26;horizontalStack=0;resizeParent=1;resizeParentMax=0;resizeLast=0;collapsible=1;marginBottom=0;whiteSpace=wrap;html=1;" parent="1" vertex="1">
          <mxGeometry x="276" y="775" width="160" height="86" as="geometry" />
        </mxCell>
        <mxCell id="GOHMVVGOKaV0fo8kliWJ-130" value="+ field: type" style="text;strokeColor=none;fillColor=none;align=left;verticalAlign=top;spacingLeft=4;spacingRight=4;overflow=hidden;rotatable=0;points=[[0,0.5],[1,0.5]];portConstraint=eastwest;whiteSpace=wrap;html=1;" parent="GOHMVVGOKaV0fo8kliWJ-129" vertex="1">
          <mxGeometry y="26" width="160" height="26" as="geometry" />
        </mxCell>
        <mxCell id="GOHMVVGOKaV0fo8kliWJ-131" value="" style="line;strokeWidth=1;fillColor=none;align=left;verticalAlign=middle;spacingTop=-1;spacingLeft=3;spacingRight=3;rotatable=0;labelPosition=right;points=[];portConstraint=eastwest;strokeColor=inherit;" parent="GOHMVVGOKaV0fo8kliWJ-129" vertex="1">
          <mxGeometry y="52" width="160" height="8" as="geometry" />
        </mxCell>
        <mxCell id="GOHMVVGOKaV0fo8kliWJ-132" value="+ method(type): type" style="text;strokeColor=none;fillColor=none;align=left;verticalAlign=top;spacingLeft=4;spacingRight=4;overflow=hidden;rotatable=0;points=[[0,0.5],[1,0.5]];portConstraint=eastwest;whiteSpace=wrap;html=1;" parent="GOHMVVGOKaV0fo8kliWJ-129" vertex="1">
          <mxGeometry y="60" width="160" height="26" as="geometry" />
        </mxCell>
        <mxCell id="GOHMVVGOKaV0fo8kliWJ-143" value="" style="endArrow=block;dashed=1;endFill=0;endSize=12;html=1;rounded=0;fontSize=12;curved=1;" parent="1" edge="1">
          <mxGeometry width="160" relative="1" as="geometry">
            <mxPoint x="-621" y="736" as="sourcePoint" />
            <mxPoint x="-461" y="736" as="targetPoint" />
          </mxGeometry>
        </mxCell>
        <mxCell id="GOHMVVGOKaV0fo8kliWJ-147" value="Relation" style="endArrow=open;html=1;endSize=12;startArrow=diamondThin;startSize=14;startFill=0;edgeStyle=orthogonalEdgeStyle;rounded=0;fontSize=12;curved=1;" parent="1" edge="1">
          <mxGeometry relative="1" as="geometry">
            <mxPoint x="461" y="528" as="sourcePoint" />
            <mxPoint x="621" y="528" as="targetPoint" />
          </mxGeometry>
        </mxCell>
        <mxCell id="GOHMVVGOKaV0fo8kliWJ-148" value="0..n" style="edgeLabel;resizable=0;html=1;align=left;verticalAlign=top;" parent="GOHMVVGOKaV0fo8kliWJ-147" connectable="0" vertex="1">
          <mxGeometry x="-1" relative="1" as="geometry" />
        </mxCell>
        <mxCell id="GOHMVVGOKaV0fo8kliWJ-149" value="1" style="edgeLabel;resizable=0;html=1;align=right;verticalAlign=top;" parent="GOHMVVGOKaV0fo8kliWJ-147" connectable="0" vertex="1">
          <mxGeometry x="1" relative="1" as="geometry" />
        </mxCell>
        <mxCell id="GOHMVVGOKaV0fo8kliWJ-150" value="" style="group" parent="1" vertex="1" connectable="0">
          <mxGeometry x="-298" y="393" width="226" height="201" as="geometry" />
        </mxCell>
        <mxCell id="GOHMVVGOKaV0fo8kliWJ-21" value="" style="fontStyle=1;align=center;verticalAlign=top;childLayout=stackLayout;horizontal=1;horizontalStack=0;resizeParent=1;resizeParentMax=0;resizeLast=0;marginBottom=0;direction=west;rotation=0;container=0;" parent="GOHMVVGOKaV0fo8kliWJ-150" vertex="1">
          <mxGeometry width="226" height="201" as="geometry" />
        </mxCell>
        <mxCell id="GOHMVVGOKaV0fo8kliWJ-22" value="&lt;span style=&quot;background-color: initial;&quot;&gt;text_&lt;/span&gt;" style="html=1;align=left;spacingLeft=4;verticalAlign=top;strokeColor=none;fillColor=none;whiteSpace=wrap;rotation=0;" parent="GOHMVVGOKaV0fo8kliWJ-150" vertex="1">
          <mxGeometry width="226" height="40" as="geometry" />
        </mxCell>
        <mxCell id="GOHMVVGOKaV0fo8kliWJ-23" value="" style="shape=module;jettyWidth=10;jettyHeight=4;rotation=0;" parent="GOHMVVGOKaV0fo8kliWJ-22" vertex="1">
          <mxGeometry x="1" width="16" height="20" relative="1" as="geometry">
            <mxPoint x="-25" y="9" as="offset" />
          </mxGeometry>
        </mxCell>
        <mxCell id="GOHMVVGOKaV0fo8kliWJ-43" value="image_" style="html=1;align=left;spacingLeft=4;verticalAlign=top;strokeColor=none;fillColor=none;whiteSpace=wrap;rotation=0;" parent="GOHMVVGOKaV0fo8kliWJ-150" vertex="1">
          <mxGeometry y="40" width="226" height="40" as="geometry" />
        </mxCell>
        <mxCell id="GOHMVVGOKaV0fo8kliWJ-44" value="" style="shape=module;jettyWidth=10;jettyHeight=4;rotation=0;" parent="GOHMVVGOKaV0fo8kliWJ-43" vertex="1">
          <mxGeometry x="1" width="16" height="20" relative="1" as="geometry">
            <mxPoint x="-25" y="9" as="offset" />
          </mxGeometry>
        </mxCell>
        <mxCell id="GOHMVVGOKaV0fo8kliWJ-24" value="" style="line;strokeWidth=1;fillColor=none;align=left;verticalAlign=middle;spacingTop=-1;spacingLeft=3;spacingRight=3;rotatable=0;labelPosition=right;points=[];portConstraint=eastwest;rotation=0;" parent="GOHMVVGOKaV0fo8kliWJ-150" vertex="1">
          <mxGeometry y="80" width="226" height="8" as="geometry" />
        </mxCell>
        <mxCell id="GOHMVVGOKaV0fo8kliWJ-25" value="provided interfaces" style="html=1;align=center;spacingLeft=4;verticalAlign=top;strokeColor=none;fillColor=none;whiteSpace=wrap;rotation=0;" parent="GOHMVVGOKaV0fo8kliWJ-150" vertex="1">
          <mxGeometry y="88" width="226" height="25" as="geometry" />
        </mxCell>
        <mxCell id="GOHMVVGOKaV0fo8kliWJ-26" value="KdmImage" style="html=1;align=left;spacingLeft=4;verticalAlign=top;strokeColor=none;fillColor=none;whiteSpace=wrap;rotation=0;" parent="GOHMVVGOKaV0fo8kliWJ-150" vertex="1">
          <mxGeometry y="113" width="226" height="25" as="geometry" />
        </mxCell>
        <mxCell id="GOHMVVGOKaV0fo8kliWJ-27" value="" style="line;strokeWidth=1;fillColor=none;align=left;verticalAlign=middle;spacingTop=-1;spacingLeft=3;spacingRight=3;rotatable=0;labelPosition=right;points=[];portConstraint=eastwest;rotation=0;" parent="GOHMVVGOKaV0fo8kliWJ-150" vertex="1">
          <mxGeometry y="138" width="226" height="8" as="geometry" />
        </mxCell>
        <mxCell id="GOHMVVGOKaV0fo8kliWJ-28" value="required interfaces" style="html=1;align=center;spacingLeft=4;verticalAlign=top;strokeColor=none;fillColor=none;whiteSpace=wrap;rotation=0;" parent="GOHMVVGOKaV0fo8kliWJ-150" vertex="1">
          <mxGeometry y="146" width="226" height="25" as="geometry" />
        </mxCell>
        <mxCell id="GOHMVVGOKaV0fo8kliWJ-29" value="&lt;div&gt;EmbeddingApi&lt;/div&gt;" style="html=1;align=left;spacingLeft=4;verticalAlign=top;strokeColor=none;fillColor=none;whiteSpace=wrap;rotation=0;" parent="GOHMVVGOKaV0fo8kliWJ-150" vertex="1">
          <mxGeometry y="171" width="226" height="30" as="geometry" />
        </mxCell>
        <mxCell id="GOHMVVGOKaV0fo8kliWJ-141" style="edgeStyle=none;curved=1;rounded=0;orthogonalLoop=1;jettySize=auto;html=1;exitX=1;exitY=0.75;exitDx=0;exitDy=0;fontSize=12;startSize=8;endSize=8;" parent="GOHMVVGOKaV0fo8kliWJ-150" source="GOHMVVGOKaV0fo8kliWJ-28" target="GOHMVVGOKaV0fo8kliWJ-28" edge="1">
          <mxGeometry relative="1" as="geometry" />
        </mxCell>
        <mxCell id="ldeiu67JCMKbHvtVbnyd-24" value="" style="rounded=1;whiteSpace=wrap;html=1;absoluteArcSize=1;arcSize=14;strokeWidth=2;" vertex="1" parent="1">
          <mxGeometry x="-50" y="2320" width="100" height="40" as="geometry" />
        </mxCell>
        <mxCell id="ldeiu67JCMKbHvtVbnyd-25" value="" style="strokeWidth=2;html=1;shape=mxgraph.flowchart.decision;whiteSpace=wrap;" vertex="1" parent="1">
          <mxGeometry x="-370" y="2465" width="100" height="100" as="geometry" />
        </mxCell>
        <mxCell id="ldeiu67JCMKbHvtVbnyd-26" value="End" style="strokeWidth=2;html=1;shape=mxgraph.flowchart.terminator;whiteSpace=wrap;" vertex="1" parent="1">
          <mxGeometry x="-40" y="2640" width="80" height="40" as="geometry" />
        </mxCell>
        <mxCell id="ldeiu67JCMKbHvtVbnyd-27" value="Begin" style="strokeWidth=2;html=1;shape=mxgraph.flowchart.start_1;whiteSpace=wrap;" vertex="1" parent="1">
          <mxGeometry x="-40" y="2240" width="80" height="40" as="geometry" />
        </mxCell>
        <mxCell id="ldeiu67JCMKbHvtVbnyd-28" value="&lt;b&gt;&lt;font style=&quot;font-size: 15px;&quot;&gt;Embedding Text&lt;/font&gt;&lt;/b&gt;" style="text;html=1;align=center;verticalAlign=middle;whiteSpace=wrap;rounded=0;" vertex="1" parent="1">
          <mxGeometry x="-60" y="2730" width="120" height="30" as="geometry" />
        </mxCell>
      </root>
    </mxGraphModel>
  </diagram>
</mxfile>
